<svg width="120" height="120" viewBox="0 0 120 120" fill="none" xmlns="http://www.w3.org/2000/svg">
<path d="M44.7461 68.2227H51.3848C51.7285 68.2227 51.9648 68.3086 52.1797 68.5234L62.4922 77.6758C63.0078 78.1699 63.5879 78.5137 64.2539 78.5137C65.2207 78.5137 65.7793 77.8047 65.7793 76.8809V44.1387C65.7793 43.2148 65.2207 42.4414 64.2324 42.4414C63.5664 42.4414 63.0723 42.8281 62.4922 43.3223L52.1797 52.6895C51.9648 52.8828 51.7285 52.9473 51.3848 52.9473H44.7461C42.7051 52.9473 41.7383 53.9785 41.7383 56.041V65.1719C41.7383 67.2559 42.7266 68.2227 44.7461 68.2227ZM44.7891 66.7188C43.6934 66.7188 43.3281 66.3105 43.3281 65.2363V55.9766C43.3281 54.8809 43.6934 54.4727 44.7891 54.4727H51.5566C52.2012 54.4727 52.6523 54.3867 53.168 53.8926L63.3086 44.6113C63.4805 44.4609 63.6309 44.3105 63.8457 44.3105C64.0605 44.3105 64.2109 44.4609 64.2109 44.7188V76.2148C64.2109 76.4941 64.0605 76.6445 63.8672 76.6445C63.7168 76.6445 63.5879 76.5801 63.3301 76.3652L53.168 67.2773C52.6738 66.8477 52.2012 66.7188 51.5566 66.7188H44.7891ZM74.373 69.3398C74.7383 69.5977 75.1895 69.5332 75.4688 69.1465C77.1016 67.0195 78.2402 64.0117 78.2402 60.4883C78.2402 56.9648 77.1016 53.957 75.4688 51.8301C75.1895 51.4648 74.7383 51.3789 74.373 51.6367C73.9863 51.916 73.9219 52.3887 74.2227 52.8184C75.877 55.0957 76.6719 57.459 76.6719 60.4883C76.6719 63.5176 75.877 65.8809 74.2227 68.1582C73.9219 68.5879 73.9863 69.0605 74.373 69.3398Z" fill="white"/>
<circle cx="60" cy="60" r="59.5" stroke="white"/>
</svg>
