<svg width="48" height="48" viewBox="0 0 48 48" fill="none" xmlns="http://www.w3.org/2000/svg">
<path d="M28.5605 27.25V16.5176C28.5605 16.0977 28.3066 15.7461 27.8672 15.7461C27.5645 15.7461 27.3301 15.9219 27.0762 16.1465L22.0469 20.7266L22.5352 21.2246L27.4473 16.7324C27.5254 16.6641 27.584 16.5957 27.6816 16.5957C27.7793 16.5957 27.8477 16.6641 27.8477 16.7812V26.5273L28.5605 27.25ZM31.4902 33.1777C31.6367 33.3145 31.8613 33.3145 31.998 33.1777C32.1543 33.0215 32.1445 32.8066 31.998 32.6602L16.3828 17.0449C16.2559 16.918 16.0215 16.8984 15.875 17.0449C15.7383 17.1914 15.7383 17.416 15.875 17.5625L31.4902 33.1777ZM19 27.4648H22.0273C22.1836 27.4648 22.2812 27.5039 22.3887 27.6016L27.0762 31.7617C27.3203 31.9766 27.5645 32.1426 27.8672 32.1426C28.0625 32.1426 28.1992 32.0742 28.3164 31.9668L27.5547 31.2539L22.8184 27.0254C22.6035 26.8301 22.4082 26.7812 22.1055 26.7812H19.0195C18.5312 26.7812 18.3555 26.5957 18.3555 26.1074V22.0059L17.7305 21.3809C17.6719 21.5273 17.6426 21.7031 17.6426 21.9277V26.0781C17.6426 27.0254 18.082 27.4648 19 27.4648Z" fill="white"/>
<circle cx="24" cy="24" r="23.5" stroke="white" stroke-opacity="0.5"/>
</svg>
