<svg width="120" height="120" viewBox="0 0 120 120" fill="none" xmlns="http://www.w3.org/2000/svg">
<path d="M40.8848 68.2227H47.5234C47.8672 68.2227 48.1035 68.3086 48.3184 68.5234L58.6309 77.6758C59.1465 78.1699 59.7051 78.5137 60.3926 78.5137C61.3379 78.5137 61.918 77.8047 61.918 76.8809V44.1387C61.918 43.2148 61.3379 42.4414 60.3711 42.4414C59.7051 42.4414 59.1895 42.8281 58.6309 43.3223L48.3184 52.6895C48.1035 52.8828 47.8672 52.9473 47.5234 52.9473H40.8848C38.8438 52.9473 37.877 53.9785 37.877 56.041V65.1719C37.877 67.2559 38.8652 68.2227 40.8848 68.2227ZM40.9062 66.7188C39.832 66.7188 39.4453 66.3105 39.4453 65.2363V55.9766C39.4453 54.8809 39.832 54.4727 40.9062 54.4727H47.6953C48.3398 54.4727 48.7695 54.3867 49.2852 53.8926L59.4473 44.6113C59.6191 44.4609 59.748 44.3105 59.9844 44.3105C60.1777 44.3105 60.3281 44.4609 60.3281 44.7188V76.2148C60.3281 76.4941 60.1777 76.6445 60.0059 76.6445C59.834 76.6445 59.7051 76.5801 59.4688 76.3652L49.2852 67.2773C48.791 66.8477 48.3398 66.7188 47.6953 66.7188H40.9062ZM77.4727 75.0332C77.8594 75.291 78.3105 75.2051 78.5684 74.8398C81.3398 71.252 83.123 65.9023 83.123 60.4883C83.123 55.0527 81.3398 49.7031 78.5684 46.1367C78.3105 45.7715 77.8594 45.6855 77.4727 45.9434C77.0859 46.2012 77.043 46.6738 77.3438 47.082C80.0508 50.7129 81.5332 55.4395 81.5332 60.4883C81.5332 65.5371 80.0293 70.2637 77.3438 73.873C77.043 74.3027 77.0859 74.7539 77.4727 75.0332ZM70.5117 69.3398C70.877 69.5977 71.3281 69.5117 71.6074 69.1465C73.2402 67.0195 74.3789 64.0117 74.3789 60.4883C74.3789 56.9648 73.2402 53.957 71.6074 51.8301C71.3281 51.4434 70.877 51.3789 70.5117 51.6367C70.125 51.916 70.0605 52.3887 70.3613 52.8184C72.0156 55.0957 72.8105 57.459 72.8105 60.4883C72.8105 63.5176 72.0156 65.8809 70.3613 68.1582C70.0605 68.5879 70.125 69.0605 70.5117 69.3398Z" fill="white"/>
<circle cx="60" cy="60" r="59.5" stroke="white"/>
</svg>
