<svg width="48" height="48" viewBox="0 0 48 48" fill="none" xmlns="http://www.w3.org/2000/svg">
<path d="M32.9648 33.168C33.1309 33.2852 33.3457 33.2363 33.4629 33.0605C35.0547 30.5312 36.2754 27.7188 36.2754 23.9492C36.2754 20.1797 35.0449 17.3672 33.4629 14.8379C33.3457 14.6523 33.1309 14.6035 32.9648 14.7305C32.7988 14.8379 32.7695 15.0625 32.8867 15.2578C34.4004 17.6797 35.5625 20.3262 35.5625 23.9492C35.5625 27.5723 34.4004 30.2188 32.8867 32.6406C32.7695 32.8262 32.7988 33.0508 32.9648 33.168ZM13.0918 27.4648H16.1094C16.2656 27.4648 16.373 27.5039 16.4707 27.6016L21.1582 31.7617C21.4023 31.9863 21.6562 32.1426 21.959 32.1426C22.3984 32.1426 22.6523 31.8203 22.6523 31.4004V16.5176C22.6523 16.0977 22.3984 15.7461 21.9492 15.7461C21.6465 15.7461 21.4219 15.9219 21.1582 16.1465L16.4707 20.4043C16.373 20.4922 16.2656 20.5215 16.1094 20.5215H13.0918C12.1641 20.5215 11.7246 20.9902 11.7246 21.9277V26.0781C11.7246 27.0254 12.1738 27.4648 13.0918 27.4648ZM13.1113 26.7812C12.6133 26.7812 12.4473 26.5957 12.4473 26.1074V21.8984C12.4473 21.4004 12.6133 21.2148 13.1113 21.2148H16.1875C16.4805 21.2148 16.6855 21.1758 16.9199 20.9512L21.5293 16.7324C21.6074 16.6641 21.6758 16.5957 21.7734 16.5957C21.8711 16.5957 21.9395 16.6641 21.9395 16.7812V31.0977C21.9395 31.2246 21.8711 31.293 21.7832 31.293C21.7148 31.293 21.6562 31.2637 21.5391 31.166L16.9199 27.0352C16.6953 26.8398 16.4805 26.7812 16.1875 26.7812H13.1113ZM29.7227 30.5605C29.8984 30.6777 30.1035 30.6387 30.2305 30.4727C31.4805 28.8418 32.291 26.4102 32.291 23.9492C32.291 21.4785 31.4902 19.0469 30.2305 17.4258C30.1035 17.2598 29.8984 17.2207 29.7227 17.3379C29.5566 17.4551 29.5273 17.6699 29.6641 17.8555C30.8945 19.5059 31.5781 21.6543 31.5781 23.9492C31.5781 26.2441 30.8945 28.3926 29.6641 30.0332C29.5273 30.2285 29.5566 30.4336 29.7227 30.5605ZM26.5586 27.9727C26.7246 28.0898 26.9297 28.0508 27.0566 27.8848C27.7988 26.918 28.3164 25.5508 28.3164 23.9492C28.3164 22.3477 27.7988 20.9805 27.0566 20.0137C26.9297 19.8379 26.7246 19.8086 26.5586 19.9258C26.3828 20.0527 26.3535 20.2676 26.4902 20.4629C27.2422 21.498 27.6035 22.5723 27.6035 23.9492C27.6035 25.3262 27.2422 26.4004 26.4902 27.4355C26.3535 27.6309 26.3828 27.8457 26.5586 27.9727Z" fill="white"/>
<circle cx="24" cy="24" r="23.5" stroke="white" stroke-opacity="0.5"/>
</svg>
