<svg width="120" height="120" viewBox="0 0 120 120" fill="none" xmlns="http://www.w3.org/2000/svg">
<path d="M70.0332 67.75V44.1387C70.0332 43.2148 69.4746 42.4414 68.5078 42.4414C67.8418 42.4414 67.3262 42.8281 66.7676 43.3223L55.7031 53.3984L56.7773 54.4941L67.584 44.6113C67.7559 44.4609 67.8848 44.3105 68.0996 44.3105C68.3145 44.3105 68.4648 44.4609 68.4648 44.7188V66.1602L70.0332 67.75ZM76.4785 80.791C76.8008 81.0918 77.2949 81.0918 77.5957 80.791C77.9395 80.4473 77.918 79.9746 77.5957 79.6523L43.2422 45.2988C42.9629 45.0195 42.4473 44.9766 42.125 45.2988C41.8242 45.6211 41.8242 46.1152 42.125 46.4375L76.4785 80.791ZM49 68.2227H55.6602C56.0039 68.2227 56.2188 68.3086 56.4551 68.5234L66.7676 77.6758C67.3047 78.1484 67.8418 78.5137 68.5078 78.5137C68.9375 78.5137 69.2383 78.3633 69.4961 78.127L67.8203 76.5586L57.4004 67.2559C56.9277 66.8262 56.498 66.7188 55.832 66.7188H49.043C47.9688 66.7188 47.582 66.3105 47.582 65.2363V56.2129L46.207 54.8379C46.0781 55.1602 46.0137 55.5469 46.0137 56.041V65.1719C46.0137 67.2559 46.9805 68.2227 49 68.2227Z" fill="white"/>
<circle cx="60" cy="60" r="59.5" stroke="white"/>
</svg>
