<svg fill="none" height="120" viewBox="0 0 120 120" width="120" xmlns="http://www.w3.org/2000/svg"><path d="m78.4219 80.7699c.3652.2578.8379.1503 1.0957-.2364 3.5019-5.5644 6.1875-11.7519 6.1875-20.0449s-2.7071-14.4805-6.1875-20.0449c-.2578-.4082-.7305-.5156-1.0957-.2363-.3653.2363-.4297.7304-.1719 1.1601 3.3301 5.3281 5.8867 11.1504 5.8867 19.1211s-2.5566 13.793-5.8867 19.1211c-.2578.4082-.1934.9023.1719 1.1602zm-43.7207-12.5469h6.6386c.3438 0 .5801.0859.795.3008l10.3125 9.1523c.5371.4941 1.0957.8379 1.7617.8379.9668 0 1.5254-.709 1.5254-1.6328v-32.7422c0-.9238-.5586-1.6973-1.5469-1.6973-.666 0-1.1602.3867-1.7402.8809l-10.3125 9.3672c-.2149.1933-.4512.2578-.795.2578h-6.6386c-2.041 0-3.0078 1.0312-3.0078 3.0937v9.1309c0 2.084.9882 3.0508 3.0078 3.0508zm.0429-1.5039c-1.0957 0-1.4609-.4082-1.4609-1.4824v-9.2598c0-1.0957.3652-1.5039 1.4609-1.5039h6.7676c.6445 0 1.0957-.086 1.6113-.5801l10.1407-9.2812c.1718-.1504.3222-.3008.5371-.3008.2148 0 .3652.1504.3652.4082v31.4961c0 .2793-.1504.4297-.3437.4297-.1504 0-.2793-.0645-.5371-.2793l-10.1622-9.0879c-.4941-.4297-.9668-.5586-1.6113-.5586zm36.545 8.3144c.3867.2578.8379.1719 1.1171-.1933 2.75-3.5879 4.5333-8.9375 4.5333-14.3516 0-5.4355-1.7618-10.7852-4.5333-14.3516-.2792-.3652-.7304-.4511-1.1171-.1933-.3653.2578-.4297.7305-.1289 1.1387 2.707 3.6308 4.2109 8.3574 4.2109 13.4062s-1.5039 9.7754-4.2109 13.3848c-.3008.4297-.2364.8808.1289 1.1601zm-6.961-5.6933c.3653.2578.8164.1718 1.0957-.1934 1.6328-2.1269 2.7715-5.1348 2.7715-8.6582s-1.1387-6.5312-2.7715-8.6582c-.2793-.3867-.7304-.4512-1.0957-.1934-.3867.2793-.4511.752-.1504 1.1817 1.6543 2.2773 2.4493 4.6406 2.4493 7.6699s-.795 5.3926-2.4493 7.6699c-.3007.4297-.2363.9024.1504 1.1817z" fill="#fff"/><circle cx="60" cy="60" r="59.5" stroke="#1a1a1a"/></svg>