<svg fill="none" height="120" viewBox="0 0 120 120" width="120" xmlns="http://www.w3.org/2000/svg"><path d="m34.7012 68.2227h6.6386c.3438 0 .5801.0859.795.3007l10.3125 9.1524c.5371.4941 1.0957.8379 1.7617.8379.9668 0 1.5254-.709 1.5254-1.6328v-32.7422c0-.9239-.5586-1.6973-1.5469-1.6973-.666 0-1.1602.3867-1.7402.8809l-10.3125 9.3672c-.2149.1933-.4512.2578-.795.2578h-6.6386c-2.041 0-3.0078 1.0312-3.0078 3.0937v9.1309c0 2.084.9882 3.0508 3.0078 3.0508zm.0429-1.5039c-1.0957 0-1.4609-.4083-1.4609-1.4825v-9.2597c0-1.0957.3652-1.5039 1.4609-1.5039h6.7676c.6445 0 1.0957-.086 1.6113-.5801l10.1407-9.2813c.1718-.1504.3222-.3008.5371-.3008.2148 0 .3652.1504.3652.4083v31.496c0 .2793-.1504.4297-.3437.4297-.1504 0-.2793-.0644-.5371-.2793l-10.1622-9.0879c-.4941-.4296-.9668-.5585-1.6113-.5585zm29.584 2.621c.3653.2579.8164.1719 1.0957-.1933 1.6328-2.127 2.7715-5.1348 2.7715-8.6582 0-3.5235-1.1387-6.5313-2.7715-8.6582-.2793-.3867-.7304-.4512-1.0957-.1934-.3867.2793-.4511.752-.1504 1.1817 1.6543 2.2773 2.4493 4.6406 2.4493 7.6699s-.795 5.3926-2.4493 7.6699c-.3007.4297-.2363.9023.1504 1.1816z" fill="#fff"/><circle cx="60" cy="60" r="59.5" stroke="#1a1a1a"/></svg>