<svg width="48" height="48" viewBox="0 0 48 48" fill="none" xmlns="http://www.w3.org/2000/svg">
<path d="M17.0664 27.4648H20.084C20.2402 27.4648 20.3477 27.5039 20.4453 27.6016L25.1328 31.7617C25.3672 31.9863 25.6309 32.1426 25.9336 32.1426C26.373 32.1426 26.627 31.8203 26.627 31.4004V16.5176C26.627 16.0977 26.373 15.7461 25.9238 15.7461C25.6211 15.7461 25.3965 15.9219 25.1328 16.1465L20.4453 20.4043C20.3477 20.4922 20.2402 20.5215 20.084 20.5215H17.0664C16.1387 20.5215 15.6992 20.9902 15.6992 21.9277V26.0781C15.6992 27.0254 16.1484 27.4648 17.0664 27.4648ZM17.0859 26.7812C16.5879 26.7812 16.4219 26.5957 16.4219 26.1074V21.8984C16.4219 21.4004 16.5879 21.2148 17.0859 21.2148H20.1621C20.4551 21.2148 20.6602 21.1758 20.8945 20.9512L25.5039 16.7324C25.582 16.6641 25.6504 16.5957 25.748 16.5957C25.8457 16.5957 25.9141 16.6641 25.9141 16.7812V31.0977C25.9141 31.2246 25.8457 31.293 25.7578 31.293C25.6895 31.293 25.6309 31.2637 25.5137 31.166L20.8945 27.0352C20.6699 26.8398 20.4551 26.7812 20.1621 26.7812H17.0859ZM30.5332 27.9727C30.6992 28.0898 30.9043 28.0605 31.0312 27.8848C31.7734 26.918 32.291 25.5508 32.291 23.9492C32.291 22.3477 31.7734 20.9805 31.0312 20.0137C30.9043 19.8477 30.6992 19.8086 30.5332 19.9258C30.3574 20.0527 30.3281 20.2676 30.4648 20.4629C31.2168 21.498 31.5781 22.5723 31.5781 23.9492C31.5781 25.3262 31.2168 26.4004 30.4648 27.4355C30.3281 27.6309 30.3574 27.8457 30.5332 27.9727Z" fill="white"/>
<circle cx="24" cy="24" r="23.5" stroke="white" stroke-opacity="0.5"/>
</svg>
