<svg width="48" height="48" viewBox="0 0 48 48" fill="none" xmlns="http://www.w3.org/2000/svg">
<path d="M15.084 27.4648H18.1016C18.2578 27.4648 18.3652 27.5039 18.4629 27.6016L23.1504 31.7617C23.3848 31.9863 23.6387 32.1426 23.9512 32.1426C24.3809 32.1426 24.6445 31.8203 24.6445 31.4004V16.5176C24.6445 16.0977 24.3809 15.7461 23.9414 15.7461C23.6387 15.7461 23.4043 15.9219 23.1504 16.1465L18.4629 20.4043C18.3652 20.4922 18.2578 20.5215 18.1016 20.5215H15.084C14.1562 20.5215 13.7168 20.9902 13.7168 21.9277V26.0781C13.7168 27.0254 14.166 27.4648 15.084 27.4648ZM15.0938 26.7812C14.6055 26.7812 14.4297 26.5957 14.4297 26.1074V21.8984C14.4297 21.4004 14.6055 21.2148 15.0938 21.2148H18.1797C18.4727 21.2148 18.668 21.1758 18.9023 20.9512L23.5215 16.7324C23.5996 16.6641 23.6582 16.5957 23.7656 16.5957C23.8535 16.5957 23.9219 16.6641 23.9219 16.7812V31.0977C23.9219 31.2246 23.8535 31.293 23.7754 31.293C23.6973 31.293 23.6387 31.2637 23.5312 31.166L18.9023 27.0352C18.6777 26.8398 18.4727 26.7812 18.1797 26.7812H15.0938ZM31.7148 30.5605C31.8906 30.6777 32.0957 30.6387 32.2129 30.4727C33.4727 28.8418 34.2832 26.4102 34.2832 23.9492C34.2832 21.4785 33.4727 19.0469 32.2129 17.4258C32.0957 17.2598 31.8906 17.2207 31.7148 17.3379C31.5391 17.4551 31.5195 17.6699 31.6562 17.8555C32.8867 19.5059 33.5605 21.6543 33.5605 23.9492C33.5605 26.2441 32.877 28.3926 31.6562 30.0332C31.5195 30.2285 31.5391 30.4336 31.7148 30.5605ZM28.5508 27.9727C28.7168 28.0898 28.9219 28.0508 29.0488 27.8848C29.791 26.918 30.3086 25.5508 30.3086 23.9492C30.3086 22.3477 29.791 20.9805 29.0488 20.0137C28.9219 19.8379 28.7168 19.8086 28.5508 19.9258C28.375 20.0527 28.3457 20.2676 28.4824 20.4629C29.2344 21.498 29.5957 22.5723 29.5957 23.9492C29.5957 25.3262 29.2344 26.4004 28.4824 27.4355C28.3457 27.6309 28.375 27.8457 28.5508 27.9727Z" fill="white"/>
<circle cx="24" cy="24" r="23.5" stroke="white" stroke-opacity="0.5"/>
</svg>
