<svg width="120" height="120" viewBox="0 0 120 120" fill="none" xmlns="http://www.w3.org/2000/svg">
<path d="M79.7227 80.7695C80.0879 81.0273 80.5605 80.9199 80.8184 80.5332C84.3203 74.9688 87.0059 68.7812 87.0059 60.4883C87.0059 52.1953 84.2988 46.0078 80.8184 40.4434C80.5605 40.0352 80.0879 39.9277 79.7227 40.207C79.3574 40.4434 79.293 40.9375 79.5508 41.3672C82.8809 46.6953 85.4375 52.5176 85.4375 60.4883C85.4375 68.459 82.8809 74.2812 79.5508 79.6094C79.293 80.0176 79.3574 80.5117 79.7227 80.7695ZM36.002 68.2227H42.6406C42.9844 68.2227 43.2207 68.3086 43.4355 68.5234L53.748 77.6758C54.2852 78.1699 54.8438 78.5137 55.5098 78.5137C56.4766 78.5137 57.0352 77.8047 57.0352 76.8809V44.1387C57.0352 43.2148 56.4766 42.4414 55.4883 42.4414C54.8223 42.4414 54.3281 42.8281 53.748 43.3223L43.4355 52.6895C43.2207 52.8828 42.9844 52.9473 42.6406 52.9473H36.002C33.9609 52.9473 32.9941 53.9785 32.9941 56.041V65.1719C32.9941 67.2559 33.9824 68.2227 36.002 68.2227ZM36.0449 66.7188C34.9492 66.7188 34.584 66.3105 34.584 65.2363V55.9766C34.584 54.8809 34.9492 54.4727 36.0449 54.4727H42.8125C43.457 54.4727 43.9082 54.3867 44.4238 53.8926L54.5645 44.6113C54.7363 44.4609 54.8867 44.3105 55.1016 44.3105C55.3164 44.3105 55.4668 44.4609 55.4668 44.7188V76.2148C55.4668 76.4941 55.3164 76.6445 55.123 76.6445C54.9727 76.6445 54.8438 76.5801 54.5859 76.3652L44.4238 67.2773C43.9297 66.8477 43.457 66.7188 42.8125 66.7188H36.0449ZM72.5898 75.0332C72.9766 75.291 73.4277 75.2051 73.707 74.8398C76.457 71.252 78.2402 65.9023 78.2402 60.4883C78.2402 55.0527 76.4785 49.7031 73.707 46.1367C73.4277 45.7715 72.9766 45.6855 72.5898 45.9434C72.2246 46.2012 72.1602 46.6738 72.4609 47.082C75.168 50.7129 76.6719 55.4395 76.6719 60.4883C76.6719 65.5371 75.168 70.2637 72.4609 73.873C72.1602 74.3027 72.2246 74.7539 72.5898 75.0332ZM65.6289 69.3398C65.9941 69.5977 66.4453 69.5117 66.7246 69.1465C68.3574 67.0195 69.4961 64.0117 69.4961 60.4883C69.4961 56.9648 68.3574 53.957 66.7246 51.8301C66.4453 51.4434 65.9941 51.3789 65.6289 51.6367C65.2422 51.916 65.1777 52.3887 65.4785 52.8184C67.1328 55.0957 67.9277 57.459 67.9277 60.4883C67.9277 63.5176 67.1328 65.8809 65.4785 68.1582C65.1777 68.5879 65.2422 69.0605 65.6289 69.3398Z" fill="white"/>
<circle cx="60" cy="60" r="59.5" stroke="white"/>
</svg>
