<svg fill="none" height="32" viewBox="0 0 336 32" width="336" xmlns="http://www.w3.org/2000/svg" xmlns:xlink="http://www.w3.org/1999/xlink"><linearGradient id="a" gradientUnits="userSpaceOnUse" x1="-19.0667" x2="350.907" y1="15.3333" y2="21.5335"><stop offset="0" stop-color="#00ffe1" stop-opacity=".4"/><stop offset=".510417" stop-color="#00ffe1"/><stop offset="1" stop-color="#00ffe1" stop-opacity=".4"/></linearGradient><clipPath id="b"><path d="m0 0h336v32h-336z"/></clipPath><mask id="c" height="32" maskUnits="userSpaceOnUse" width="336" x="0" y="0"><g clip-path="url(#b)" fill="none"><path d="m0 16.3902h7.3l.49-.74.2.71h3.54l.4-.76.28.76h.79v-7.56004l.34-.12c.05.09.14.16.14.23v7.43004h2.32l.08-1.08.41-.07v1.17h3.71v-15.910044h.44v15.880044h5.56l.14-.51h.27l.26.7.77-.93v-.91h.44v1.71l.88.06.16-.56h1.26l.15.55h.29l.15-.54h.81l.13.5h.39v-1.07c.52-.35.43.23.57.44h.71l.42-.71.28.74h.79v-2.29l.45-.1v2.13l.77.82h.64l.08-.5.91-.11v-1.39c.25.34.35.48.45.6s.32.31.47.48.19.28.41.62v-1.19l.95-1v-6.81004l.32-.15c.08.08.18.14.18.2v7.89004l.68.77h2.51l.13-.49.32-.06.16.57h1.27l.09-.48.44-.12v1.45l.64-.76h1.08l.24-.65h.28l.14.55h1.25l.37-.83.27.85h2.05l1.06-1.39.11 1.41h.41v-11.82004h.47v10.50004l.47.17v1c.1069.0584.2213.1022.34.13h7.54l.16.56c.1 0 .21.07.24 0s.14-.29.27-.57h1.68l.12-.56h1.71l.17-.6h.83l.14.52h1.24l.25-.72.59.89.32-.83 1 1.24h.61l.39-.8.27.81h1.79v-1.08l.4-.05.09 1.13h.75l.39.86.42-.92.4.68h1.15l.27-.78c.15.29.21.42.29.54s.17.23.34.46l.16-.72h2.16l.29-.77.62.88.23-.73h1.24l.2.65.53-.62h4.85l.2.53h.31l.11-1.41 1.23 1.61.17-1.32.33-.06.15 1.38.66-.88.37.8 1.09-1.49.14 1.3h1.32l.08-.46h.8l.2.53h.27l.15-.56h1.2l.42-.89.27.83h.72l.5-.86.15 1.47h.35l.1-1.19h.38l.08 1.13.41.07v-1.13c.241.1258.442.3162.58.55h1.22l.2.71 1.13-1.42.22.67h3l.69.89v-1.72l.66.85h.66l.12.55h.84l.09-1c.54-.52.31.65.8.44l.17-.51h.77l.2.64.57-.65h1.17v-14.200044h.86c.043.101839.07.209813.08.32v13.760044l.43.11.06 1.1.43.05v-1.08c.53-.34.42.25.57.45h.76l.16-.55h.74l.22.58h.24l.39-.86.27.84h2.58c.21.22.07.84.61.51v-1l.39-.07.11 1.14h1.81v-1.05l.4-.11.07 1 .77 1 .24-.72h3.6v-7.66004l.33-.14c.06.08.16.14.16.21v6.06004l1.15 1.4h.64l.14-.52h1.24l.24.68 1.11-1.45.19.69h1.22l.29.77.61-.88.24.72h1.7l.08-.28c.029-.0883.062-.1751.1-.26h1.21l.14.51h.79l.25-.65.62.87.23-.73h.76l.25-.72.91 1.28h1.66l.13-.49h.79l.4.7.42-.94.43.69h.68l.21-.72.5.66h3.45l.6-.88v-1.28c.33-.18.43-.08.48.32 0 .19.29.32.44.48l.45.46v1h1.82v-1.05l.39-.11.1 1.18h.82l.14-.52.85-.06v-1.18h.44v1.09h1.37l.18-.64 1 1.26h.65l.12-.48.76-.1.4-.77.28.77h1.7l.19-.69.5.67h.69l.36-.81.28.85h1.72l.1.57c1.33.07 2.7 0 4.1 0l.09-.53h.82l.13.46h.83l.11-1.35 1.3 1.65.17-1.31h.42v1.4l1.12-1.38h.65l.25.67 1.13-1.51.19 1.53.72-.88.18.69h.76l.29.78.42-.71h.72l.17.53h1.75v-1.68l.44-.16.09 1.78h1.28l.24-.67.62.89.24-.73h.76l.17.53h.87v-1.41l.6.8h.6l.59.92v-1.2l.84-.93c.34.59 0 1.28.27 1.93l.8-.89v-.91h.89l.07.93.87 1v-1.93l1-.07v2l.63-.76h1.18l.09.48h1.32v-2.23l.45-.07v2.12l.89 1c0-.32.08-.53.09-.74s0-.36 0-.87l.65.89h.62l.14-.54.37-.08.08 1.17h.85v-.89l.89-1 .13 1.25h.79l.68-1.07h1.15l1 1.36.13-1.19.73-.91c.051.1979.125.3892.22.57.09.12.25.15.43.24v1h.89l.07-1.1h.89v1.11h1v-1.93l.91 1v.92h.88v-2.24l.47-.09.06 1.18.9.06v1.12h.43v-1.09l.95-.1v-2.05l.88-1c.081.727.104 1.4592.07 2.19v2.09h.91v-5.28h.48v3.47l.43.14v1.59l.33.14c.07-.08.17-.14.17-.2 0-2.86 0-5.71004 0-8.60004l.31-.11c.06.09.15.16.15.23v3.69004l.91 1.05v.92h.48v-1.16h.48v1.4l.74-.93.3.68h.32l.08-1.13.38-.06v1.67l.47.17v.88l.75.83h2l.14-.52h.83l.1.48h.81l.14-.5h.28c.36.3-.19 1 .46 1.24l.25-.72.54.6h3l.08-1.36 1.11 1.47 1.07-1.43c.07.57.11 1 .18 1.54l.54-.69h2.07l.16-.6h.84l.06 1.09.43.05v-1.2h1.73l.75 1.11h1.24c0-.37 0-.7 0-1.09h.68l1.15-1.55v-3.80004h.48v1.11004l.42.07.07-1.71004.37-.14c.16 1 0 2.00004.1 2.95004l.39.1.08 1c.152.1231.296.2568.43.4.125.2158.235.4396.33.67.09-.71.14-1.09.22-1.65.34.44.72.65.92 1.24h.75c.06.22.1.39.15.55l.41.22v1h.84l.14-.52h1.75v1.1l.94.06v-1.08h.86l.56.85.09 1.05.81-1v-.7l.77-1 .32.6h.76l.14-.52h.34l.08 1.71.34.08.16-.58.85-.06v-5.79004h.44v2.79004l.52.23v1.05h.4c0-.56.05-1.12.08-1.72l.4-.12v2.44h1.3l.59-.84v1.61c.444-.3797.831-.8208 1.15-1.31.39-.12.13.77.61.62.18-.06 0 .75.53.52v-.9l.91-1c0 .49.06.84.07 1.2s0 .78 0 1.25h1.36l.08-.46h.86l.1 1.33.83-1 .05 1.3c.48.33.41-.21.55-.49h.74l.19-.61h1.25l.09-.51h.84l.1.48h.81l.14-.51h.82v-2.17l.82-.91c.37.55 0 1.17.25 1.71.09.11.23.3.38.46s.27.24.46.42v1.54l.37.1.16-.6h.85v-1.38c.49.48.88.75 1.05 1.34l.76.05.16.55h.32l.1-1.14h1.32l.36.81.27-.83h.85v1.71h.52v-1l.52-.23v-1.91c.33.39.51.6.68.83s.3.42.51.72l.38-.85.56.88c.184-.4844.242-1.0071.17-1.52 0-.49 0-1 0-1.5l.41-.16.09 1.78h.85c0 .61.05 1.17.08 1.78h.87v-2.26l.48-.06v1.16h1.36l.08-.51.88-.1v-3.39l.42-.16004c.16 1.00004 0 2.00004.11 2.95004l.38.11c0-.6.05-1.17.08-1.76l.38-.08v2.13l.71.81h.64v-1.67l.48-.09.05 1.13h1.28l.14.6h.82v-11.12004l.48-.09v2.89l.44.14v7.59004h1.88v1.56l.9 1.07.1-1.26c.152-.113.296-.2367.43-.37.078-.1422.138-.2933.18-.45l.75.93v-2.8l.92 1v1.91l.91 1.1v-15.590044l.45-.07v14.590044l.77.82h1.07l.16-.59h1.76v-2.88l.42-.14c.15 1 0 1.95.1 2.95h.87l.13-.5h.87l.11.49.81.1.16.52h.8l.08-.52.83-.07.15-.56h.29l.15.54h.78l.16.6.35.05v-1.06l.52-.21v-1.31l.69.77h.68l.05 1.14.38.11.1-1.13.44-.21v-1.62h.91v1.06l.43.14v.87l.87 1 .15-.68h.78l.16-.6h.85l.06 1.09.43.05v-1.76h.48v1.1l.3.06c.034-.0176.065-.0413.09-.07 0 0 .07-.07.07-.11v-9.78004l.31-.12c.06.09.15.16.15.22v9.80004h1.73l.29.78.59-.85.35.8.74-.92v-12.07004l.34-.13c.06.09.14.16.14.23v12.17004h.86l.13-.5h.85v1.81c.62-.28.82-1 1.31-1.37.119.6326.156 1.2779.11 1.92v2l-.7-.85c-.18-.22-.35-.44-.68-.83v2h-.89l-.1-.51-.86-.06v12.29l-.35.15c-.05-.08-.14-.15-.14-.21 0-4 0-8.08 0-12l-.72-.92c-.08.0903-.147.1912-.2.3-.068.1642-.118.3352-.15.51l-.63-.91-.26.75h-1.73v9.94l-.34.14c-.06-.08-.15-.15-.15-.21 0-3.25 0-6.5 0-9.78l-.41-.14c0 .44-.07.84-.1 1.23h-.39v-1.68l-.48-.08v1.17h-.9l-.08-.49-.83-.12-.18-.65-.82.93v.88l-.43.12-.07 1.1h-.85v-1.61l-.52-.21v-1.07h-.44v1.09h-.81l-.25.65h-.3l-.1-1.08-.41-.2v-1c-.26-.22-.33-.16-.53.48h-.79l-.08.48c-.32.31-.43.09-.46-.45h-.88l-.12-.56h-.88l-.1.5h-.78l-.17.59h-.8l-.1-.5-.86-.06v2.84l-.32.15c-.07-.08-.17-.14-.17-.2 0-.89 0-1.77 0-2.76h-1.8l-.12-.56h-1.23l-.61.87v14.43h-.43v-15.52l-.92.95v1.92l-.92 1.1v-2.44c-.6-.5-.39.4-.73.44l-.71-.88v-.89c-.19 0-.34 0-.39.1s-.09.35-.18.48-.21.06-.35.09v1.63h-1.84v7.62l-.52.24v2.84h-.4v-11.18l-.88-.07-.18.62h-1.29v1.09l-.4.13-.08-1.78h-.76l-.63.86v2h-.44v-1.67h-.44v2.82l-.33.13c-.06-.08-.16-.15-.16-.21 0-1.08 0-2.16 0-3.35h-.86l-.12-.55h-1.3l-.08 1.08-.42.07v-2.38h-.9v1.67l-1 .12v1.6l-.44.18c-.13-1 0-2-.1-3.17-.154.1068-.292.2347-.41.38-.099.1943-.176.3989-.23.61l-.43-1-1.07 1.43c-.132-.5428-.179-1.1028-.14-1.66l-.86-1-.11 1.33h-.81l-.26-.69-.42.71h-1.23v-1c-.39-.37-.5-.14-.53.35h-.66l-1.13 1.53-.08-1.4-.8-.06c-.17-.17 0-.79-.53-.49v1.45l-1 1.09v1.76l-.92-1.1v-2.05l-.84-.06-.16-.54h-.76l-.16.53h-.8l-.1-.54h-1.3l-.1-.59h-1.27l-.24.65-.73-.89v1.31l-.89.06-.16-.56h-1.35v2.57l-.88-1.08-.11-1.18-1.06 1.47-1.12-1.45c0 .62-.08 1-.11 1.41h-.34l-.15-.55h-1.32v2.3h-.48v-1.68h-.44v1l-.48.21v2.78l-.34.1c-.05-.09-.13-.16-.13-.24 0-1.86 0-3.73 0-5.65h-.83l-.17-.58-.39-.05v2l-.75-.74h-.57l-.2.71-.83-.94v-.98h-.79l-.77 1.14h-.75v-1.08h-.94l-.05 1.05h-1.77l-.11-.48h-.84l-.07.88-.66.82h-.54l-1 1.39-.17-1.56-.86 1v.84l-.48.22v2.78h-.44v-1.66h-.48v1.11l-.39.06c-.16-1.34 0-2.7-.08-3.91l-1.16-1.42h-.67v-1.18h-1.27l-.76 1.11h-1.69l-.07-1.11h-.37l-.1 1.14h-.81l-.14-.51h-2l-.69-.9v1.37c-.22.1-.66-.36-1.16-1.11l-1.16 1.46v-1.45h-3.19l-.25.72-.68-1-.2 1.44h-.32l-.15-.54h-.8l-.14.51h-.8l-.15-.52h-2.04l-.64.85v.79l-.44.2v1.6l-.43.12-.09-1.17h-.31l-.28.72-.64-1-.17 1.37-.34.06-.17-1.15h-.27c0 .07-.13.14-.13.21v.76l-1 1.05v3.86h-.44v-8.88h-.43v1.63l-.48.21v3.36l-.43.15c-.14-1.78 0-3.53-.08-5.32h-.83v.05 4.17c-.177-.1205-.344-.2542-.5-.4-.12-.12-.22-.27-.42-.52v-2.08l-1-.14v-1.11l-.39-.06-.1 1.14h-.84l-.1 1.18-.39.1v-2.36h-.91v.88l-.86.94c-.125-.5914-.176-1.1961-.15-1.8h-.88l-.05 1.06h-.86l-.09-1.08h-.85l-.06.8-.65 1-.74-.93v-1.13l-1.16 1.38h-1l-.74-1.1h-.79v1.36c-.411-.4024-.749-.8727-1-1.39h-.73l-.15.53-.32.07-.27-.59h-.75l-.39.79-.27-.79h-.82v2.23l-.44.16v-2.39h-1.33l-.13.49h-1.19l-.57-.79v1.78c-.07.11-.09.18-.12.18l-.86.08v-2l-.92 1v.92h-.86l-.08-.93-.9-1v2.27l-.47-.5-.49-.48v-1.3l-.59.81h-.6l-.63 1v-1.53h-.9l-.09.51h-.8l-.21-.7-.68.84-.19-.68h-1.31v1.73l-.48.08v-1.78h-1.83l-.09.51h-.75l-.43-.74-.29.73h-.71l-.26.71-.77-.94v1.38c-.19 0-.38 0-.39 0-.14-.57-.58-.76-.89-1.39l-.18.79h-.72l-1.09-1.41v1.44h-.53v-1.35l-1.32 1.64-.1-1.37h-.82l-.14.51h-.8l-.15-.53h-4l-.18.58h-1.69c-.019.1051-.046.2087-.08.31-.037.1235-.084.2439-.14.36l-.48-.63h-.66l-.45.7-.2-.72h-1.79l-.18.63-.62-.63-.62-.07-.09-.49h-.78l-.87 1.33-.25-.77h-1.32v1.12h-.44v-1.1l-.89-.09-.15-.55h-.79l-.09 1.12-.38.09-.05-1.17h-1.78v.81l-1.4 1.74-.07-1.78-.66-.76h-3.43l-.36.81-.27-.83h-.77l-.27.79-.44-.88-.47.59h-.72l-.1-.49h-1.68l-.82 1.23-.4-.64-.7-.08-.19-.66-.69.84-.18-.69h-.81l-.14.51h-1.26l-.15-.52h-1.72c0 .09-.05.18-.08.26l-.13.38-.69-.83-.16.69h-1.22l-.29.77-1.09-1.42-.24.69h-1.2l-.15-.51h-.7l-1.12 1.42v6.16l-.44.05v-7.65h-4.63v1l-.43.19-.11-1.18h-1.78l-.09 1.06-.38.1-.07-1.47-.53.86h-2.55l-.28.8-.54-.93-.31.68h-.79l-.1-.48h-.8l-.2.54h-.33v-1.17h-.57v1.1l-.44.15v14.05h-.94v-14.07h-1.31l-.16-.6-.32-.08-.16.58h-.67l-.38-.81-.28.82h-.35v-1.09h-.99l-.09.47h-.78l-.17.59-.36.09-.08-1.11c-.25-.23-.32-.16-.52.48h-3l-.24.72-1.13-1.45-.18.69h-1.14l-.66.94v-1.47h-.48v1.09l-.39.08-.18-1.17h-.35l-.11 1.19h-.33l-.14-.55h-.79l-.36.83-.28-.87h-1.24l-.22-.68-.53.61h-.69l-.1-.47h-1.3l-.09 1c-.53.44-.33-.53-.58-.48-.44.1-.2-.57-.6-.62l-.4.69-.64-.93-.12 1.44h-.38l-.12-1.4-.66.81c-.15.2-.29.43-.55.82l-.19-1.55-.56.67h-4.83l-.2-.53h-.24l-.15.54h-1.28l-.27-.69-.58.89-.26-.72h-6.4l-.06 1.15h-.37l-.11-1.15h-1.73l-.36.81-.28-.81h-.69l-.9 1.26-.35-.82-.5.79-.41-.63h-1.19l-.15.52h-.77l-.19-.55h-1.68c-.0192-.1052-.046-.2088-.08-.31 0-.0934-.03-.1734-.09-.24h-10.15v1.05l-.45.21v10.47l-.44.1v-11.85h-.51v1.37c-.4404-.3599-.7841-.8239-1-1.35h-2.16l-.22.57h-.22l-.19-.59h-1.26l-.36.83-.27-.83h-1.7c0 .11-.06.19-.09.28s-.05.16-.12.36l-.52-.6h-1.13l-.19.53h-.28l-.14-.57h-2.6l-.6.88v7.92h-.44v-6.8l-.94-1-.09-1.2-1.33 1.6v-1.4h-2.3v2.22l-.43.19c-.16-.79 0-1.57-.1-2.37h-.81l-.24.65-.46-.69h-.69l-.38.82-.27-.82h-4.07v1.11l-.39.06-.1-1.13h-7v15.26l-.44.11v-15.41h-3.66l-.37.81-.28-.81h-2.21v7l-.34.14c-.06-.09-.16-.15-.16-.21v-6.93h-13.05z" fill="#fff"/></g></mask><g mask="url(#c)"><path d="m-15 0h366v32h-366z" fill="url(#a)"/></g></svg>