<svg width="120" height="24" viewBox="0 0 120 24" fill="none" xmlns="http://www.w3.org/2000/svg">
<mask id="mask0" mask-type="alpha" maskUnits="userSpaceOnUse" x="0" y="0" width="120" height="24">
<path d="M110.28 15.7692H110.61C110.875 15.7692 111.13 15.6639 111.317 15.4763C111.505 15.2888 111.61 15.0344 111.61 14.7692V13.7692C111.697 13.7796 111.784 13.7796 111.87 13.7692H112C112.049 13.9966 112.176 14.2 112.358 14.3441C112.541 14.4883 112.768 14.5644 113 14.5592H113.37C113.618 14.5586 113.857 14.4659 114.04 14.2992H114.35C114.42 14.4925 114.548 14.6595 114.716 14.7776C114.884 14.8957 115.085 14.9591 115.29 14.9592H115.69C115.923 14.9644 116.15 14.8883 116.332 14.7441C116.515 14.6 116.641 14.3966 116.69 14.1692H116.78H116.97C117.227 14.1346 117.46 14.002 117.62 13.7992C117.695 13.9092 117.79 14.0041 117.9 14.0792C118.066 14.1905 118.261 14.2497 118.46 14.2492C118.55 14.2638 118.641 14.2638 118.73 14.2492H118.9L119.06 14.1992C119.278 14.1406 119.47 14.0099 119.605 13.8283C119.739 13.6467 119.808 13.425 119.8 13.1992V12.7792C119.8 12.1692 119.8 11.5692 119.8 10.9792C119.797 10.8237 119.761 10.6707 119.696 10.5296C119.63 10.3885 119.537 10.2624 119.42 10.1592C119.326 10.0574 119.211 9.97643 119.084 9.92134C118.956 9.86625 118.819 9.83828 118.68 9.83922C118.568 9.8405 118.456 9.86078 118.35 9.89922H118.25L118.1 9.94922C117.937 10.0079 117.793 10.1079 117.68 10.2392C117.629 10.1743 117.572 10.1141 117.51 10.0592C117.329 9.90431 117.099 9.8192 116.86 9.81922H116.66C116.618 9.56339 116.478 9.33393 116.27 9.17922C116.101 9.04092 115.889 8.96657 115.67 8.96922C115.58 8.95955 115.49 8.95955 115.4 8.96922L115.08 9.05922C114.915 9.10662 114.764 9.19596 114.643 9.31859C114.522 9.44123 114.435 9.59301 114.39 9.75922C114.321 9.74937 114.25 9.74937 114.18 9.75922V9.75922C114.11 9.66695 114.025 9.58601 113.93 9.51922C113.767 9.40987 113.576 9.35075 113.38 9.34922C113.281 9.35039 113.184 9.36727 113.09 9.39922L112.91 9.44922H112.73C112.594 9.49014 112.469 9.55945 112.362 9.65255C112.255 9.74565 112.169 9.86041 112.11 9.98922C111.976 9.98948 111.844 10.0167 111.72 10.0692C111.729 9.70155 111.709 9.33377 111.66 8.96922C111.641 8.83309 111.593 8.70244 111.521 8.58543C111.449 8.46843 111.353 8.36759 111.24 8.28922C111.073 8.17251 110.874 8.1097 110.67 8.10922C110.597 8.09946 110.523 8.09946 110.45 8.10922H110.28H110.09C109.866 8.16201 109.668 8.29027 109.528 8.4724C109.387 8.65454 109.314 8.87943 109.32 9.10922V10.4292H108.86C108.722 10.4979 108.57 10.5337 108.415 10.5337C108.261 10.5337 108.108 10.4979 107.97 10.4292H106.83C106.754 10.2631 106.633 10.1213 106.481 10.019C106.33 9.91673 106.153 9.85801 105.97 9.84922V9.84922C105.788 9.84788 105.608 9.89657 105.451 9.99C105.294 10.0834 105.166 10.218 105.08 10.3792H104.94C104.8 10.1566 104.577 9.99854 104.32 9.93922H104.1C103.964 9.93838 103.829 9.96544 103.703 10.0188C103.578 10.0721 103.464 10.1505 103.37 10.2492L103.25 10.3792V10.2492C103.25 10.099 103.215 9.95089 103.149 9.81586C103.083 9.68083 102.988 9.56235 102.87 9.46922V9.49922C102.858 9.36022 102.817 9.22524 102.75 9.10296C102.683 8.98068 102.591 8.87381 102.48 8.78922C102.308 8.65582 102.098 8.58209 101.88 8.57922H101.7H101.5H101.35C101.161 8.61374 100.987 8.70187 100.846 8.83309C100.706 8.9643 100.607 9.13306 100.56 9.31922V9.08922C100.56 8.89293 100.502 8.70102 100.394 8.53743C100.285 8.37383 100.131 8.24577 99.9502 8.16922C99.8277 8.11409 99.6945 8.08677 99.5602 8.08922C99.3041 8.08755 99.0571 8.18419 98.8702 8.35922L98.7102 8.51922L98.5602 8.65922L98.3702 8.80922L98.0002 8.93922V8.99922H97.8602C97.7738 8.98885 97.6866 8.98885 97.6002 8.99922L97.3402 9.06922C97.1315 9.12884 96.9442 9.24679 96.8002 9.40922H96.3402C96.1884 9.41989 96.041 9.46508 95.9093 9.54133C95.7776 9.61758 95.665 9.72288 95.5802 9.84922C95.5094 9.92954 95.4521 10.0207 95.4102 10.1192C95.1916 10.1909 95.0045 10.3357 94.8802 10.5292H94.5502C94.5018 10.4381 94.4412 10.354 94.3702 10.2792L93.8902 9.77922L93.4202 9.29922C93.3218 9.19853 93.2032 9.11975 93.0722 9.06806C92.9413 9.01636 92.8009 8.9929 92.6602 8.99922H92.2502C92.0827 8.99838 91.9176 9.03964 91.7702 9.11922C91.6906 8.94718 91.5637 8.80131 91.4044 8.69862C91.245 8.59593 91.0598 8.54065 90.8702 8.53922C90.7771 8.52951 90.6833 8.52951 90.5902 8.53922L90.3902 8.59922L90.2202 8.64922C90.0428 8.70174 89.8834 8.80246 89.7598 8.94017C89.6362 9.07788 89.5533 9.24717 89.5202 9.42922V9.42922C89.359 9.34977 89.1794 9.31522 89.0002 9.32922C88.8287 9.33188 88.6605 9.37651 88.5102 9.45922L88.4202 9.51922C88.3603 9.23639 88.1914 8.98852 87.9502 8.82922C87.7757 8.67509 87.5529 8.58667 87.3202 8.57922C87.1939 8.58224 87.0689 8.60589 86.9502 8.64922L86.6802 8.74922C86.4888 8.82073 86.3239 8.94916 86.2077 9.11722C86.0915 9.28527 86.0295 9.4849 86.0302 9.68922V10.0892L85.9802 10.1392H85.9002C85.8211 10.1485 85.7437 10.1687 85.6702 10.1992C85.5258 10.1213 85.3643 10.08 85.2002 10.0792C85.1108 10.0647 85.0196 10.0647 84.9302 10.0792V9.59922C84.9302 9.334 84.8248 9.07965 84.6373 8.89211C84.4498 8.70458 84.1954 8.59922 83.9302 8.59922H83.8002H83.5402H83.4702C83.2227 8.62409 82.9933 8.74033 82.8269 8.92524C82.6605 9.11015 82.569 9.35045 82.5702 9.59922V10.0492L82.0002 9.51922C81.9682 9.48393 81.9311 9.45359 81.8902 9.42922V7.99922C81.8913 7.85799 81.8624 7.71814 81.8055 7.58887C81.7487 7.4596 81.665 7.34384 81.5602 7.24922C81.3626 7.07411 81.1038 6.98424 80.8402 6.99922H80.7302H80.3602C80.1163 7.02869 79.8918 7.14693 79.7295 7.33137C79.5672 7.51581 79.4784 7.75354 79.4802 7.99922V8.89922C79.3616 8.9932 79.2658 9.11287 79.2002 9.24922V9.24922C79.0338 9.24842 78.8698 9.28915 78.7232 9.36773C78.5765 9.44631 78.4517 9.56024 78.3602 9.69922L78.2802 9.82922H78.1102C77.978 9.8426 77.8497 9.88222 77.7329 9.94575C77.6162 10.0093 77.5133 10.0954 77.4302 10.1992H77.0002H76.7902V9.89922C76.7902 9.71922 76.7902 9.54922 76.7902 9.37922C76.7902 9.03922 76.7902 8.67922 76.7902 8.37922C76.7821 8.24005 76.745 8.1041 76.6813 7.98011C76.6176 7.85611 76.5286 7.74681 76.4202 7.65922V7.52922C76.4473 7.06727 76.4171 6.60373 76.3302 6.14922C76.3 6.01077 76.2406 5.88033 76.1562 5.76654C76.0717 5.65276 75.964 5.55823 75.8402 5.48922C75.6898 5.408 75.5211 5.36669 75.3502 5.36922C75.2441 5.35404 75.1363 5.35404 75.0302 5.36922L74.7902 5.44922H74.6802C74.4751 5.52055 74.2988 5.65671 74.1779 5.83712C74.057 6.01753 73.9982 6.23239 74.0102 6.44922V7.39922H73.7202H73.5002H73.3602C73.1181 7.43095 72.896 7.55016 72.7357 7.73437C72.5755 7.91858 72.4881 8.15506 72.4902 8.39922V9.29922C72.3172 9.44241 72.1974 9.63967 72.1502 9.85922V6.85922C72.1487 6.70567 72.1118 6.55453 72.0424 6.41753C71.973 6.28053 71.8731 6.16135 71.7502 6.06922V5.20922C71.7498 5.0721 71.7211 4.93654 71.6661 4.81096C71.611 4.68538 71.5307 4.57246 71.4302 4.47922C71.2458 4.30655 71.0028 4.21009 70.7502 4.20922H70.6302V3.76922C70.6263 3.50519 70.5309 3.25071 70.3602 3.04922C70.2759 2.90731 70.1558 2.79008 70.0118 2.70933C69.8679 2.62858 69.7052 2.58716 69.5402 2.58922C69.4672 2.57946 69.3932 2.57946 69.3202 2.58922L69.0402 2.64922C68.8109 2.69597 68.6053 2.82164 68.4591 3.00436C68.313 3.18708 68.2355 3.41527 68.2402 3.64922V4.24922C68.0758 4.13443 67.8807 4.07172 67.6802 4.06922C67.5312 4.0701 67.3843 4.10427 67.2502 4.16922C67.08 4.25027 66.9362 4.37776 66.8354 4.537C66.7345 4.69624 66.6807 4.88073 66.6802 5.06922V6.59922H66.6002L66.3202 6.66922C66.0928 6.71801 65.8895 6.84455 65.7453 7.02707C65.6011 7.2096 65.525 7.43667 65.5302 7.66922V10.5392L65.3102 10.2992L65.0002 9.99922C64.9104 9.90229 64.8024 9.8241 64.6822 9.76918C64.5621 9.71425 64.4322 9.68368 64.3002 9.67922C64.2479 9.58829 64.1802 9.50709 64.1002 9.43922L63.4702 8.87922L63.3402 8.75922C63.1568 8.59252 62.918 8.49987 62.6702 8.49922H62.5102C62.5102 7.66922 62.5102 6.80922 62.5102 5.94922C62.5039 5.80331 62.4657 5.66055 62.3983 5.53098C62.331 5.40141 62.236 5.28817 62.1202 5.19922C61.9389 5.06307 61.7168 4.99255 61.4902 4.99922H61.2602L61.0002 5.05922H60.8802C60.6565 5.11201 60.4578 5.24027 60.3175 5.4224C60.1773 5.60454 60.1041 5.82943 60.1102 6.05922V6.27922C59.8809 6.32597 59.6753 6.45164 59.5291 6.63436C59.3829 6.81708 59.3055 7.04527 59.3102 7.27922V7.70922C59.1296 7.85594 59.0058 8.06105 58.9602 8.28922C58.7971 8.3257 58.6457 8.40247 58.52 8.51253C58.3942 8.62258 58.298 8.76241 58.2402 8.91922C58.121 8.99337 58.0161 9.08819 57.9302 9.19922L57.7502 9.44922H57.4902C57.273 9.47246 57.0694 9.56619 56.9105 9.71607C56.7516 9.86595 56.6461 10.0637 56.6102 10.2792C56.4452 10.1184 56.2297 10.0195 56.0002 9.99922H55.9402C55.7815 9.99995 55.6253 10.0384 55.4845 10.1115C55.3437 10.1845 55.2222 10.29 55.1302 10.4192V10.2492C55.1155 10.1 55.0674 9.95607 54.9895 9.82797C54.9116 9.69988 54.8059 9.59095 54.6802 9.50922C54.5192 9.40525 54.3318 9.34972 54.1402 9.34922H54.0002C53.9531 9.16124 53.8523 8.991 53.7102 8.85922C53.5151 8.68659 53.2604 8.5969 53.0002 8.60922H52.9402H52.5802C52.3283 8.60841 52.0853 8.70272 51.8999 8.87328C51.7145 9.04385 51.6003 9.2781 51.5802 9.52922C51.409 9.41408 51.2064 9.3547 51.0002 9.35922C50.8917 9.36043 50.7839 9.37727 50.6802 9.40922L50.4402 9.48922H50.3202C50.1572 9.54598 50.0117 9.64397 49.8978 9.77364C49.7839 9.90332 49.7055 10.0603 49.6702 10.2292H49.5702C49.5087 10.1212 49.4231 10.0288 49.3202 9.95922V9.56922C49.3254 9.42541 49.2995 9.28216 49.2443 9.14927C49.1891 9.01639 49.1058 8.89698 49.0002 8.79922C48.8203 8.65014 48.5938 8.56876 48.3602 8.56922H48.1602L47.9302 8.61922H47.8002C47.5709 8.66597 47.3653 8.79164 47.2191 8.97436C47.0729 9.15708 46.9955 9.38527 47.0002 9.61922V9.77922H46.8702C46.6492 9.77991 46.4347 9.85375 46.2602 9.98922C46.0871 9.8594 45.8766 9.78922 45.6602 9.78922H45.1702C45.0775 9.77392 44.9829 9.77392 44.8902 9.78922H44.7502H44.5402H44.4102C44.2031 9.81945 44.0108 9.91389 43.8602 10.0592L43.7702 9.82922C43.6876 9.69603 43.575 9.5841 43.4412 9.50246C43.3075 9.42082 43.1564 9.37175 43.0002 9.35922H42.8102C42.5624 9.35987 42.3236 9.45252 42.1402 9.61922L41.4302 10.2592L41.3602 10.3292C41.2497 10.2631 41.1274 10.219 41.0002 10.1992H40.7802C40.5289 10.1974 40.2861 10.2902 40.1002 10.4592V9.19922C40.0999 9.05968 40.0703 8.92175 40.0135 8.7943C39.9567 8.66685 39.8738 8.55271 39.7702 8.45922C39.5868 8.29252 39.348 8.19987 39.1002 8.19922H38.9002C38.9002 8.07922 38.9002 7.96922 38.9002 7.84922C38.8852 7.70264 38.8379 7.56119 38.7619 7.43499C38.6858 7.30879 38.5828 7.20097 38.4602 7.11922C38.2834 7.02157 38.0812 6.97973 37.8802 6.99922C37.7808 6.98413 37.6796 6.98413 37.5802 6.99922L37.2502 7.10922C37.0339 7.16971 36.8443 7.30125 36.7118 7.48266C36.5794 7.66407 36.5119 7.88477 36.5202 8.10922V8.99922H36.3602H36.1902H36.0002H35.8702C35.6757 9.03415 35.4959 9.12594 35.3535 9.26298C35.2111 9.40003 35.1125 9.57619 35.0702 9.76922C34.9775 9.75392 34.8829 9.75392 34.7902 9.76922H34.6302L34.3002 9.82922C34.1083 9.86272 33.9303 9.95155 33.7882 10.0848C33.6461 10.218 33.546 10.3899 33.5002 10.5792V10.5792C33.459 10.4544 33.3937 10.339 33.3079 10.2395C33.2221 10.1399 33.1176 10.0583 33.0002 9.99922C32.8376 9.88086 32.6413 9.81777 32.4402 9.81922C32.3538 9.80939 32.2666 9.80939 32.1802 9.81922L31.9102 9.88922C31.8785 9.64712 31.7593 9.425 31.575 9.26474C31.3908 9.10448 31.1544 9.01715 30.9102 9.01922H30.6202C30.5611 8.90186 30.4795 8.79729 30.38 8.7115C30.2804 8.62571 30.165 8.56037 30.0402 8.51922C29.9344 8.49989 29.826 8.49989 29.7202 8.51922C29.4593 8.51765 29.2081 8.61813 29.0202 8.79922L28.9102 8.90922C28.7279 8.74844 28.4933 8.65957 28.2502 8.65922H28.1102H27.9102H27.8202C27.7028 8.61117 27.577 8.58736 27.4502 8.58922C27.3571 8.57937 27.2633 8.57937 27.1702 8.58922L26.9702 8.64922L26.8202 8.69922C26.6644 8.74155 26.5212 8.82096 26.4028 8.93067C26.2844 9.04038 26.1943 9.17712 26.1402 9.32922V9.24922C26.1419 9.10063 26.1105 8.95352 26.0482 8.81859C25.9859 8.68367 25.8944 8.56432 25.7802 8.46922V5.99922C25.7811 5.86042 25.7532 5.72294 25.6981 5.59554C25.643 5.46814 25.562 5.3536 25.4602 5.25922C25.3329 5.13288 25.1741 5.04308 25.0002 4.99922V1.36922C24.9963 1.10519 24.9009 0.850706 24.7302 0.649219C24.6415 0.514427 24.5215 0.4031 24.3805 0.324739C24.2394 0.246379 24.0815 0.203313 23.9202 0.199219H23.7002L23.4102 0.259219C23.1828 0.308008 22.9795 0.434554 22.8353 0.617075C22.6911 0.799595 22.615 1.02667 22.6202 1.25922V6.49922C22.516 6.58547 22.4303 6.69199 22.3684 6.81231C22.3065 6.93263 22.2697 7.06425 22.2602 7.19922C22.2454 7.48903 22.2454 7.77941 22.2602 8.06922L22.0802 8.12922C21.9118 8.20221 21.7668 8.32012 21.6609 8.47004C21.5551 8.61997 21.4926 8.79612 21.4802 8.97922C21.4307 8.85142 21.3597 8.73304 21.2702 8.62922C21.1851 8.49181 21.0656 8.37896 20.9235 8.3018C20.7815 8.22465 20.6218 8.18584 20.4602 8.18922H20.2302H20.0502H19.9002C19.6843 8.23852 19.4908 8.3581 19.3502 8.52922V8.52922L19.1402 8.60922H19.0202C18.8288 8.68073 18.6639 8.80916 18.5477 8.97722C18.4315 9.14527 18.3695 9.3449 18.3702 9.54922V9.66922H18.1702H18.0002H17.8602H17.7302H17.6602V9.58922C17.6602 9.44478 17.6289 9.30205 17.5685 9.17085C17.5081 9.03966 17.42 8.92311 17.3102 8.82922C17.1291 8.67431 16.8985 8.5892 16.6602 8.58922H16.5002H16.3502H16.1002C16.0597 8.35443 15.9367 8.1418 15.7534 7.98963C15.5701 7.83746 15.3384 7.75576 15.1002 7.75922H14.3802C14.2566 7.75731 14.134 7.78115 14.0202 7.82922C13.8956 7.76884 13.7587 7.73804 13.6202 7.73922H13.2202C12.955 7.73922 12.7006 7.84458 12.5131 8.03211C12.3256 8.21965 12.2202 8.474 12.2202 8.73922V9.73922H10.8902C10.6863 9.7397 10.4874 9.80251 10.3202 9.91922C10.3202 8.08922 10.3202 6.26922 10.3202 4.45922C10.3184 4.28556 10.2747 4.11489 10.1929 3.9617C10.1111 3.8085 9.99352 3.6773 9.8502 3.57922C9.76287 3.49436 9.65956 3.42768 9.54626 3.38305C9.43297 3.33842 9.31194 3.31672 9.1902 3.31922C9.08132 3.31547 8.97273 3.33244 8.8702 3.36922H8.7602L8.6002 3.42922C8.39321 3.4988 8.2147 3.63421 8.09191 3.81478C7.96912 3.99535 7.90881 4.21115 7.9202 4.42922V9.40922H7.7302C7.55186 9.43067 7.3826 9.49976 7.2402 9.60922C7.2402 9.344 7.13484 9.08965 6.9473 8.90211C6.75977 8.71458 6.50541 8.60922 6.2402 8.60922H6.1302H5.7602C5.50551 8.62453 5.26631 8.7366 5.09157 8.92251C4.91682 9.10841 4.81974 9.35408 4.8202 9.60922V10.2492H4.7402C4.64984 10.1084 4.5256 9.99249 4.37884 9.91212C4.23209 9.83175 4.06751 9.7895 3.9002 9.78922H3.3202V7.99922C3.31839 7.86379 3.2891 7.73014 3.2341 7.60637C3.17909 7.48261 3.09951 7.37131 3.0002 7.27922C2.88632 7.14699 2.73718 7.04988 2.5702 6.99922C2.53186 6.76259 2.4098 6.54761 2.22626 6.39343C2.04271 6.23925 1.80989 6.15613 1.5702 6.15922H1.2002C0.934979 6.15922 0.680625 6.26458 0.493089 6.45211C0.305552 6.63965 0.200195 6.894 0.200195 7.15922V16.7492C0.200195 17.0144 0.305552 17.2688 0.493089 17.4563C0.680625 17.6439 0.934979 17.7492 1.2002 17.7492H1.5602C1.80587 17.751 2.04361 17.6623 2.22805 17.5C2.41248 17.3377 2.53072 17.1131 2.5602 16.8692H2.6202L2.7402 16.8192C2.93 16.7483 3.09379 16.6214 3.20986 16.4553C3.32594 16.2893 3.38883 16.0918 3.3902 15.8892V14.1692H3.8702C4.0349 14.1684 4.19685 14.1268 4.34165 14.0483C4.48644 13.9698 4.60961 13.8568 4.7002 13.7192L4.8602 13.7792V14.4092C4.86019 14.5537 4.89147 14.6964 4.95189 14.8276C5.01231 14.9588 5.10043 15.0753 5.2102 15.1692C5.39386 15.3198 5.62276 15.4043 5.8602 15.4092H6.0302L6.3202 15.3592H6.4302C6.64235 15.3219 6.83677 15.217 6.98452 15.0603C7.13227 14.9035 7.22545 14.7032 7.2502 14.4892V14.4892C7.41115 14.5932 7.59858 14.6487 7.7902 14.6492H7.9302V19.6492C7.93038 19.7912 7.96079 19.9315 8.01941 20.0608C8.07804 20.1902 8.16353 20.3055 8.2702 20.3992C8.4525 20.56 8.68712 20.6489 8.9302 20.6492H9.0502H9.3802C9.62591 20.622 9.85285 20.5048 10.0172 20.3201C10.1816 20.1354 10.2717 19.8964 10.2702 19.6492V13.9992C10.439 14.1214 10.6418 14.1879 10.8502 14.1892H12.1702V15.1392C12.1702 15.2705 12.1961 15.4006 12.2463 15.5219C12.2966 15.6432 12.3702 15.7535 12.4631 15.8463C12.5559 15.9392 12.6662 16.0128 12.7875 16.0631C12.9088 16.1134 13.0389 16.1392 13.1702 16.1392H13.5302C13.6739 16.1388 13.8164 16.1117 13.9502 16.0592C14.0723 16.1026 14.2006 16.1262 14.3302 16.1292H15.0802C15.3141 16.1339 15.5423 16.0565 15.7251 15.9103C15.9078 15.7641 16.0334 15.5585 16.0802 15.3292C16.1499 15.3389 16.2205 15.3389 16.2902 15.3292H16.6902C16.9449 15.3139 17.1841 15.2018 17.3588 15.0159C17.5336 14.83 17.6307 14.5844 17.6302 14.3292V14.1292C17.7705 14.2084 17.9291 14.2497 18.0902 14.2492H18.2902H18.3902V14.3992C18.3897 14.6544 18.4868 14.9 18.6616 15.0859C18.8363 15.2718 19.0755 15.3839 19.3302 15.3992C19.3835 15.4808 19.4513 15.552 19.5302 15.6092C19.7036 15.7548 19.9238 15.833 20.1502 15.8292C20.2198 15.8391 20.2905 15.8391 20.3602 15.8292L20.7302 15.7492C20.9192 15.709 21.0925 15.6149 21.2292 15.4782C21.3658 15.3416 21.46 15.1682 21.5002 14.9792V14.9992C21.5214 15.1815 21.5923 15.3544 21.7052 15.499C21.8181 15.6436 21.9686 15.7544 22.1402 15.8192H22.2202V16.6992C22.219 16.8536 22.2536 17.0062 22.3213 17.145C22.389 17.2838 22.4878 17.405 22.6102 17.4992V22.7992C22.6102 22.9437 22.6415 23.0864 22.7019 23.2176C22.7623 23.3488 22.8504 23.4653 22.9602 23.5592C23.1413 23.7141 23.3719 23.7992 23.6102 23.7992H23.7702H23.9202H24.1302C24.3686 23.7631 24.586 23.6419 24.7422 23.4582C24.8984 23.2744 24.9829 23.0404 24.9802 22.7992V18.8992H25.0602C25.2728 18.835 25.4579 18.7019 25.5865 18.5208C25.715 18.3398 25.7797 18.1211 25.7702 17.8992V15.5092C25.883 15.4256 25.9769 15.3191 26.0458 15.1968C26.1147 15.0745 26.1571 14.939 26.1702 14.7992C26.2195 14.9286 26.3023 15.0425 26.4102 15.1292C26.5921 15.2996 26.831 15.3958 27.0802 15.3992H27.1702H27.3802H27.5302C27.6417 15.4434 27.7603 15.4671 27.8802 15.4692C27.9566 15.4789 28.0338 15.4789 28.1102 15.4692L28.3302 15.4192H28.4602C28.6239 15.3808 28.7752 15.3017 28.9002 15.1892L29.0502 15.2892L29.2302 15.4192C29.3974 15.5359 29.5963 15.5987 29.8002 15.5992C29.9613 15.5997 30.1198 15.5584 30.2602 15.4792C30.4161 15.3995 30.55 15.2828 30.6502 15.1392C30.7333 15.1486 30.8171 15.1486 30.9002 15.1392L31.2002 15.0492H31.2602C31.4209 14.9998 31.5665 14.9107 31.6836 14.7901C31.8007 14.6695 31.8855 14.5213 31.9302 14.3592H32.2202H32.4202H32.5702C32.7704 14.3382 32.9595 14.2573 33.113 14.1271C33.2664 13.9968 33.377 13.8233 33.4302 13.6292H33.5002C33.5496 13.8793 33.6927 14.1011 33.9002 14.2492C34.0692 14.3621 34.267 14.4246 34.4702 14.4292C34.5532 14.4397 34.6372 14.4397 34.7202 14.4292L34.9502 14.3692H35.0102C35.0403 14.5942 35.1461 14.8023 35.3102 14.9592C35.5281 15.0541 35.7728 15.0683 36.0002 14.9992V14.9992H36.3702H36.4702V15.9092C36.4725 16.0767 36.5134 16.2415 36.5897 16.3906C36.666 16.5398 36.7757 16.6693 36.9102 16.7692C36.9986 16.8597 37.1044 16.9311 37.2213 16.9793C37.3383 17.0274 37.4638 17.0512 37.5902 17.0492C37.7289 17.0613 37.8685 17.0442 38.0002 16.9992L38.2802 16.9092C38.4788 16.8421 38.6513 16.7143 38.7734 16.5438C38.8954 16.3734 38.9607 16.1689 38.9602 15.9592V15.8292H39.0802H39.2502C39.4923 15.7975 39.7144 15.6783 39.8747 15.4941C40.0349 15.3099 40.1223 15.0734 40.1202 14.8292V13.4892C40.2139 13.5959 40.3293 13.6814 40.4586 13.74C40.5879 13.7986 40.7282 13.829 40.8702 13.8292H41.0102C41.1445 13.8067 41.2734 13.7592 41.3902 13.6892C41.4321 13.7496 41.4826 13.8035 41.5402 13.8492L41.8502 14.0992L42.3102 14.4692C42.4888 14.6125 42.7112 14.6902 42.9402 14.6892C43.0892 14.6883 43.2361 14.6542 43.3702 14.5892C43.4982 14.5278 43.6117 14.4399 43.703 14.3313C43.7944 14.2227 43.8616 14.0958 43.9002 13.9592C44.0761 14.1004 44.2946 14.1779 44.5202 14.1792H44.6502H44.7602H44.9702C45.0632 14.1896 45.1572 14.1896 45.2502 14.1792H45.3202H45.6302H45.6902C45.8663 14.1702 46.0363 14.1112 46.1802 14.0092C46.3613 14.1641 46.5919 14.2492 46.8302 14.2492H47.0002V14.5092C47.0155 14.7639 47.1276 15.0031 47.3135 15.1778C47.4994 15.3526 47.7451 15.4497 48.0002 15.4492C48.0929 15.4645 48.1875 15.4645 48.2802 15.4492L48.5202 15.3792H48.6402C48.8546 15.3169 49.042 15.1845 49.1725 15.0033C49.303 14.8221 49.3691 14.6024 49.3602 14.3792V13.9592C49.4403 13.9001 49.511 13.8293 49.5702 13.7492L49.7102 13.7992C49.7487 14.024 49.863 14.2289 50.0339 14.3799C50.2049 14.5308 50.4223 14.6188 50.6502 14.6292H51.0002C51.2292 14.6302 51.4516 14.5525 51.6302 14.4092C51.6302 14.6744 51.7356 14.9288 51.9231 15.1163C52.1106 15.3039 52.365 15.4092 52.6302 15.4092H53.0002C53.2314 15.4149 53.4573 15.3402 53.6397 15.198C53.822 15.0558 53.9494 14.8548 54.0002 14.6292H54.1202H54.3402C54.5618 14.5915 54.7643 14.4802 54.9149 14.3133C55.0654 14.1463 55.1554 13.9335 55.1702 13.7092C55.3389 13.8779 55.5623 13.9808 55.8002 13.9992H55.8802C56.0304 13.9985 56.1785 13.964 56.3136 13.8982C56.4486 13.8324 56.5671 13.7371 56.6602 13.6192V13.6692C56.6602 13.9344 56.7656 14.1888 56.9531 14.3763C57.1406 14.5639 57.395 14.6692 57.6602 14.6692H57.7302C57.8661 14.8665 58.0684 15.0085 58.3002 15.0692C58.3839 15.3004 58.5377 15.4997 58.7402 15.6392C58.8281 15.7199 58.9297 15.7843 59.0402 15.8292C59.0927 16.0703 59.227 16.2858 59.4202 16.4392V16.8892C59.4204 17.0312 59.4508 17.1715 59.5094 17.3008C59.568 17.4302 59.6535 17.5455 59.7602 17.6392C59.8834 17.7466 60.031 17.8221 60.1902 17.8592V17.9392C60.1948 18.2273 60.3093 18.5027 60.5102 18.7092C60.5975 18.8316 60.7131 18.931 60.8472 18.999C60.9813 19.0669 61.1299 19.1013 61.2802 19.0992C61.3696 19.1138 61.4608 19.1138 61.5502 19.0992H61.6702H61.8402C62.0584 19.0406 62.2503 18.9099 62.3846 18.7283C62.519 18.5467 62.5879 18.325 62.5802 18.0992V15.4992H62.7702C63.0228 15.4983 63.2658 15.4019 63.4502 15.2292L64.1602 14.5692C64.2336 14.5015 64.2975 14.4241 64.3502 14.3392C64.6021 14.3123 64.8344 14.1908 65.0002 13.9992L65.3102 13.6592L65.5202 13.4192V16.3992C65.5202 16.5437 65.5515 16.6864 65.6119 16.8176C65.6723 16.9488 65.7604 17.0653 65.8702 17.1592C66.0513 17.3141 66.2819 17.3992 66.5202 17.3992H66.6702V18.6592C66.6706 18.9143 66.7589 19.1616 66.9202 19.3592C66.9884 19.4409 67.0656 19.5147 67.1502 19.5792V19.5792C67.3275 19.7261 67.55 19.8074 67.7802 19.8092C67.9183 19.8072 68.0545 19.7765 68.1802 19.7192V20.3792C68.1802 20.5237 68.2115 20.6664 68.2719 20.7976C68.3323 20.9288 68.4204 21.0453 68.5302 21.1392C68.7113 21.2941 68.9419 21.3792 69.1802 21.3792H69.3202L69.7202 21.3192C69.9605 21.2853 70.1802 21.1651 70.3384 20.9811C70.4967 20.7971 70.5826 20.5619 70.5802 20.3192V19.7992H70.7202H70.8302L71.0002 19.7492C71.2165 19.6887 71.4061 19.5572 71.5386 19.3758C71.671 19.1944 71.7385 18.9737 71.7302 18.7492V17.9392C71.8544 17.8461 71.9552 17.7253 72.0246 17.5864C72.0941 17.4476 72.1302 17.2945 72.1302 17.1392V14.3392C72.198 14.5106 72.3081 14.662 72.4502 14.7792V15.6492C72.4502 15.9144 72.5556 16.1688 72.7431 16.3563C72.9306 16.5439 73.185 16.6492 73.4502 16.6492C73.5198 16.6591 73.5905 16.6591 73.6602 16.6492L73.8902 16.5992H73.9902V17.5992C73.9902 17.8644 74.0956 18.1188 74.2831 18.3063C74.4706 18.4939 74.725 18.5992 74.9902 18.5992H75.3602C75.6254 18.5992 75.8798 18.4939 76.0673 18.3063C76.2548 18.1188 76.3602 17.8644 76.3602 17.5992V16.3392C76.4844 16.2461 76.5852 16.1253 76.6546 15.9864C76.7241 15.8476 76.7602 15.6945 76.7602 15.5392V13.8092C76.8332 13.8191 76.9072 13.8191 76.9802 13.8092H77.3302C77.4244 13.9284 77.5445 14.0246 77.6813 14.0904C77.8182 14.1562 77.9683 14.19 78.1202 14.1892H78.2502L78.5302 14.4492C78.6848 14.5928 78.8808 14.6838 79.0902 14.7092C79.1583 14.8776 79.2685 15.0257 79.4102 15.1392V15.9992C79.4109 16.1494 79.4454 16.2975 79.5112 16.4326C79.577 16.5676 79.6723 16.6861 79.7902 16.7792C79.9661 16.9204 80.1846 16.9979 80.4102 16.9992C80.4899 17.0089 80.5705 17.0089 80.6502 16.9992H81.0002H81.1202C81.3308 16.9498 81.5197 16.8334 81.6585 16.6675C81.7973 16.5016 81.8786 16.2952 81.8902 16.0792C81.8902 15.5992 81.8902 15.1292 81.8902 14.6692C81.9702 14.6179 82.044 14.5575 82.1102 14.4892L82.5502 13.9992L82.6102 13.9392V14.5592C82.6189 14.7068 82.6601 14.8505 82.731 14.9802C82.8019 15.1099 82.9007 15.2223 83.0202 15.3092C83.1377 15.3966 83.2729 15.4571 83.4163 15.4865C83.5597 15.5158 83.7078 15.5134 83.8502 15.4792H84.0002H84.2102C84.4321 15.4245 84.6285 15.2954 84.7668 15.1134C84.9051 14.9315 84.9769 14.7077 84.9702 14.4792V13.8692C85.0952 13.9286 85.2318 13.9593 85.3702 13.9592H85.5002H85.6202C85.7236 13.9997 85.8308 14.0299 85.9402 14.0492H86.0002V14.6092C86.013 14.8657 86.124 15.1074 86.3102 15.2842C86.4964 15.4611 86.7434 15.5595 87.0002 15.5592C87.1063 15.5744 87.2141 15.5744 87.3202 15.5592L87.6902 15.4292C87.8551 15.3739 88.0026 15.2766 88.1184 15.1468C88.2341 15.017 88.314 14.8593 88.3502 14.6892C88.4034 14.7281 88.4604 14.7616 88.5202 14.7892C88.649 14.8479 88.7887 14.8786 88.9302 14.8792C89.1262 14.8777 89.3175 14.8186 89.4802 14.7092C89.4952 14.8558 89.5425 14.9972 89.6185 15.1234C89.6946 15.2496 89.7976 15.3575 89.9202 15.4392C90.0489 15.5272 90.1964 15.5839 90.351 15.6047C90.5055 15.6256 90.6628 15.61 90.8102 15.5592L91.0102 15.4892L91.1602 15.4392C91.3714 15.3636 91.551 15.2192 91.6702 15.0292C91.8073 15.0956 91.9578 15.1298 92.1102 15.1292H92.6002C92.8625 15.1281 93.1139 15.024 93.3002 14.8392L94.3002 13.8892C94.393 13.8051 94.4678 13.703 94.5202 13.5892H94.8202C94.9283 13.7142 95.0658 13.8104 95.2202 13.8692H95.3202C95.3519 14.1113 95.4711 14.3334 95.6553 14.4937C95.8396 14.654 96.076 14.7413 96.3202 14.7392H96.7002C96.7628 14.8133 96.8332 14.8803 96.9102 14.9392C97.0793 15.0775 97.2917 15.1519 97.5102 15.1492H97.6502H97.8702H98.0002L98.1202 15.2792C98.2157 15.387 98.3193 15.4873 98.4302 15.5792C98.5447 15.6672 98.6649 15.7474 98.7902 15.8192L98.9702 15.9192C99.1222 16.007 99.2947 16.0532 99.4702 16.0532C99.6457 16.0532 99.8182 16.007 99.9702 15.9192C100.125 15.8324 100.253 15.7061 100.343 15.5532C100.433 15.4003 100.48 15.2264 100.48 15.0492V14.9592C100.537 15.1065 100.63 15.2372 100.75 15.3392C100.931 15.4941 101.162 15.5792 101.4 15.5792H101.56H101.77H101.96C102.197 15.5409 102.412 15.4188 102.566 15.2353C102.72 15.0517 102.803 14.8189 102.8 14.5792V14.5792C102.906 14.4971 102.994 14.3945 103.059 14.2777C103.124 14.1609 103.166 14.0322 103.18 13.8992C103.352 14.0234 103.558 14.09 103.77 14.0892H103.94H104.21C104.429 14.0521 104.63 13.943 104.78 13.7792H105L105.13 13.9092C105.223 14.0067 105.335 14.0844 105.459 14.1377C105.582 14.191 105.715 14.2187 105.85 14.2192H106.06C106.192 14.1911 106.316 14.1367 106.426 14.0594C106.536 13.9821 106.629 13.8834 106.7 13.7692H109.24V15.1392C109.32 15.3439 109.465 15.5166 109.653 15.6304C109.841 15.7443 110.062 15.7931 110.28 15.7692Z" fill="white"/>
</mask>
<g mask="url(#mask0)">
<rect width="120" height="24" fill="url(#paint0_linear)"/>
</g>
<defs>
<linearGradient id="paint0_linear" x1="-1.33333" y1="11.5" x2="119.997" y2="12.3889" gradientUnits="userSpaceOnUse">
<stop stop-color="#00FFE1" stop-opacity="0.4"/>
<stop offset="0.510417" stop-color="#00FFE1"/>
<stop offset="1" stop-color="#00FFE1" stop-opacity="0.4"/>
</linearGradient>
</defs>
</svg>
