<svg width="120" height="24" viewBox="0 0 120 24" fill="none" xmlns="http://www.w3.org/2000/svg">
<mask id="mask0" mask-type="alpha" maskUnits="userSpaceOnUse" x="0" y="0" width="120" height="24">
<g clip-path="url(#clip0)">
<path d="M1.00009 13.1595H1.85009C1.91663 13.3565 2.04292 13.5278 2.2114 13.6497C2.37988 13.7716 2.58216 13.8379 2.79009 13.8395H3.56009C3.75245 13.8391 3.94062 13.7832 4.10202 13.6785C4.26343 13.5739 4.39122 13.4249 4.47009 13.2495H14.0001L14.0701 14.2495C14.0889 14.4779 14.1855 14.6929 14.3439 14.8585C14.5023 15.0242 14.7128 15.1304 14.9401 15.1595H15.0001C15.2068 15.1586 15.4082 15.0938 15.5765 14.9738C15.7449 14.8538 15.8719 14.6846 15.9401 14.4895C16.0301 14.2395 16.1001 14.0095 16.1601 13.8195C16.3362 13.6731 16.4764 13.4884 16.5701 13.2795H20.1001C20.1661 13.4902 20.3 13.6731 20.4809 13.7997C20.6618 13.9264 20.8795 13.9896 21.1001 13.9795H21.3501C21.5597 13.98 21.7642 13.9146 21.9347 13.7926C22.1052 13.6706 22.233 13.4981 22.3001 13.2995H26.1401V13.6995V13.8095C26.1554 14.0641 26.2675 14.3033 26.4534 14.4781C26.6393 14.6528 26.885 14.7499 27.1401 14.7495H27.3401H27.5601H27.7001C27.9312 14.7048 28.1392 14.58 28.2873 14.3971C28.4355 14.2141 28.5144 13.9848 28.5101 13.7495V13.1995H76.3201L76.3801 13.4495C76.4314 13.6582 76.5486 13.8448 76.7143 13.9817C76.88 14.1186 77.0854 14.1985 77.3001 14.2095V14.2095C77.5056 14.2094 77.7061 14.146 77.8743 14.0279C78.0425 13.9098 78.1702 13.7427 78.2401 13.5495L78.3901 13.1595H118.39C118.604 13.1596 118.814 13.096 118.992 12.9767C119.17 12.8574 119.309 12.6878 119.39 12.4895C119.527 12.2685 119.583 12.0072 119.55 11.7495L119.45 11.2095C119.41 10.9747 119.287 10.762 119.103 10.6099C118.92 10.4577 118.688 10.376 118.45 10.3795H109.4C109.331 10.127 109.166 9.91155 108.94 9.77945C108.789 9.68958 108.616 9.64128 108.44 9.63945C108.338 9.6195 108.232 9.6195 108.13 9.63945L107.93 9.69945H107.83C107.692 9.74365 107.564 9.81755 107.457 9.916C107.35 10.0144 107.266 10.1351 107.21 10.2695H105.77V10.2195L105.6 9.92945C105.512 9.78018 105.386 9.6565 105.235 9.57059C105.084 9.48468 104.914 9.43948 104.74 9.43945H104.57C104.372 9.47327 104.19 9.56572 104.045 9.70482C103.901 9.84391 103.801 10.0232 103.76 10.2195V10.2795H97.6401C97.5796 10.0632 97.4481 9.87351 97.2666 9.74108C97.0852 9.60866 96.8645 9.54116 96.6401 9.54945H96.5101L95.7701 9.64945C95.5965 9.67303 95.4322 9.74179 95.2935 9.84885C95.1549 9.9559 95.0468 10.0975 94.9801 10.2595H78.6001V9.71945C78.5944 9.56847 78.5545 9.42075 78.4835 9.28739C78.4125 9.15403 78.3122 9.03849 78.1901 8.94945C78.0201 8.83078 77.8174 8.76788 77.6101 8.76945C77.5139 8.75536 77.4162 8.75536 77.3201 8.76945L76.9701 8.86945C76.7719 8.92685 76.5963 9.04416 76.4674 9.20529C76.3385 9.36642 76.2626 9.56348 76.2501 9.76945V10.1995H66.7301C66.652 10.0206 66.5233 9.86845 66.3598 9.76184C66.1964 9.65522 66.0053 9.59877 65.8101 9.59945H65.0001C64.7998 9.59926 64.6041 9.65921 64.4383 9.77153C64.2725 9.88386 64.1442 10.0434 64.0701 10.2295H63.6601L63.5901 9.96945C63.5369 9.76258 63.419 9.57815 63.2534 9.44319C63.0878 9.30823 62.8834 9.22982 62.6701 9.21945C62.4658 9.21879 62.2661 9.28073 62.0981 9.39694C61.93 9.51315 61.8016 9.67805 61.7301 9.86945L61.6101 10.2195H46.7201C46.6493 9.98141 46.4924 9.77822 46.2801 9.64945C46.1238 9.55261 45.9439 9.50071 45.7601 9.49945C45.6737 9.48908 45.5864 9.48908 45.5001 9.49945L45.3201 9.54945H45.2001C45.0503 9.58918 44.9119 9.66315 44.7956 9.76554C44.6793 9.86793 44.5884 9.99593 44.5301 10.1395H28.5301V9.98945V9.62945C28.5218 9.49524 28.4866 9.36407 28.4264 9.24379C28.3663 9.12352 28.2825 9.01661 28.1801 8.92945C27.999 8.77455 27.7684 8.68943 27.5301 8.68945H27.4301H27.2001H27.0601C26.8144 8.71664 26.5874 8.83389 26.4231 9.01856C26.2587 9.20323 26.1686 9.44224 26.1701 9.68945V10.1295H22.3701C22.3149 10 22.237 9.88147 22.1401 9.77945C22.0357 9.66271 21.9077 9.56939 21.7647 9.50562C21.6216 9.44185 21.4667 9.40908 21.3101 9.40945C21.0399 9.41087 20.7771 9.49845 20.5601 9.65945C20.3917 9.7747 20.2626 9.93871 20.1901 10.1295H17.0001L16.6001 9.30945C16.5176 9.14115 16.3895 8.99941 16.2304 8.9004C16.0713 8.80138 15.8875 8.74908 15.7001 8.74945H15.0001C14.8116 8.74999 14.6271 8.80378 14.4679 8.90463C14.3086 9.00548 14.1811 9.14928 14.1001 9.31945L14.0001 9.51945L13.6901 10.1695H8.00009L7.94009 9.91945C7.8505 9.75047 7.71433 9.61072 7.54772 9.51678C7.38111 9.42284 7.19105 9.37865 7.00009 9.38945H6.92009C6.7238 9.38961 6.5319 9.44754 6.3683 9.55601C6.2047 9.66448 6.07665 9.81871 6.00009 9.99945L5.86009 10.3595H4.50009C4.4359 10.1469 4.30277 9.96171 4.12171 9.83316C3.94065 9.7046 3.72195 9.63997 3.50009 9.64945H2.36009C2.14797 9.65029 1.94161 9.71856 1.77084 9.84439C1.60006 9.97022 1.47373 10.1471 1.41009 10.3495H1.00009C0.734876 10.3495 0.480522 10.4548 0.292986 10.6423C0.10545 10.8299 9.28067e-05 11.0842 9.28067e-05 11.3495V12.0995C-0.00809904 12.2357 0.011702 12.3723 0.0582758 12.5006C0.10485 12.6289 0.17721 12.7464 0.270897 12.8457C0.364585 12.945 0.477616 13.0241 0.603025 13.078C0.728435 13.132 0.863566 13.1597 1.00009 13.1595Z" fill="white"/>
</g>
</mask>
<g mask="url(#mask0)">
<rect width="120" height="24" fill="url(#paint0_linear)"/>
</g>
<defs>
<linearGradient id="paint0_linear" x1="-1.33334" y1="11.5" x2="119.998" y2="12.3889" gradientUnits="userSpaceOnUse">
<stop stop-color="#00FFE1" stop-opacity="0.4"/>
<stop offset="0.510417" stop-color="#00FFE1"/>
<stop offset="1" stop-color="#00FFE1" stop-opacity="0.4"/>
</linearGradient>
<clipPath id="clip0">
<rect width="120" height="24" fill="white"/>
</clipPath>
</defs>
</svg>
