<svg width="120" height="24" viewBox="0 0 120 24" fill="none" xmlns="http://www.w3.org/2000/svg">
<mask id="mask0" mask-type="alpha" maskUnits="userSpaceOnUse" x="0" y="0" width="120" height="24">
<path d="M1.54541 13.3951C1.52521 13.8311 1.56233 14.2679 1.6558 14.694C1.71269 14.9173 1.84307 15.1143 2.02547 15.2527C2.20788 15.391 2.43143 15.4624 2.65932 15.4551C2.72922 15.4651 2.80016 15.4651 2.87006 15.4551L3.30157 15.3638C3.43495 15.3357 3.56128 15.2805 3.67287 15.2014V22.9239C3.67287 23.1931 3.7786 23.4512 3.96679 23.6415C4.15499 23.8318 4.41024 23.9387 4.67638 23.9387H5.11793C5.38408 23.9387 5.63933 23.8318 5.82753 23.6415C6.01572 23.4512 6.12145 23.1931 6.12145 22.9239V13.4256H8.74063V14.826C8.74096 14.9676 8.77059 15.1075 8.82763 15.2369C8.88466 15.3662 8.96783 15.482 9.07179 15.5769C9.25583 15.7461 9.49543 15.8401 9.74414 15.8407H10.0352H10.4165C10.6667 15.8179 10.8993 15.701 11.0684 15.5131C11.2375 15.3252 11.3307 15.08 11.3297 14.826V13.4357H12.3332C12.3332 14.2577 12.3332 15.0695 12.3332 15.8915C12.3373 16.0586 12.3782 16.2228 12.4528 16.372C12.5275 16.5212 12.634 16.6517 12.7647 16.754C12.95 16.9452 13.2025 17.0547 13.4672 17.0585C13.5337 17.0685 13.6014 17.0685 13.6679 17.0585L13.999 16.9976H14.0492C14.2812 16.9523 14.4898 16.8256 14.6385 16.64C14.7872 16.4544 14.8664 16.2217 14.8621 15.9828V13.4459H28.2088V22.8021C28.2116 23.0059 28.2715 23.2047 28.3817 23.3754C28.4918 23.5461 28.6476 23.6816 28.831 23.7662C28.9988 23.8846 29.1984 23.9484 29.403 23.9489C29.4927 23.9636 29.5842 23.9636 29.674 23.9489L30.0352 23.8474C30.2523 23.786 30.4426 23.6525 30.5755 23.4684C30.7084 23.2843 30.7761 23.0604 30.7678 22.8326V13.4154H47.4763C47.5557 13.5673 47.672 13.6963 47.8141 13.7904C47.9563 13.8845 48.1198 13.9405 48.2892 13.9533H48.3695C48.5253 13.9533 48.6789 13.9166 48.8183 13.8461C48.9576 13.7757 49.0788 13.6734 49.1723 13.5473L49.2927 13.385H87.6872V14.004C87.686 14.1498 87.7158 14.2941 87.7747 14.4272C87.8336 14.5603 87.9201 14.679 88.0284 14.7752C88.2128 14.9347 88.4481 15.0212 88.6907 15.0188H88.8312H89.2427H89.3531C89.596 14.9866 89.8189 14.8656 89.9797 14.6787C90.1406 14.4917 90.2282 14.2518 90.2261 14.004V13.4865H117.411C117.411 16.6221 117.411 19.7274 117.411 22.8326C117.415 23.0122 117.461 23.1883 117.547 23.3456C117.632 23.503 117.755 23.6369 117.903 23.7357C117.99 23.8228 118.094 23.8911 118.207 23.9364C118.321 23.9818 118.443 24.0033 118.565 23.9996H118.786H118.927H119.117C119.335 23.95 119.531 23.8282 119.673 23.6535C119.814 23.4789 119.894 23.2614 119.9 23.0355C120.061 17.2614 120.051 1.91794 119.699 0.852417C119.631 0.640482 119.496 0.457088 119.315 0.33054C119.133 0.203992 118.916 0.141327 118.696 0.152217H118.455H118.375L118.074 0.223252C117.853 0.280778 117.658 0.412621 117.521 0.597072C117.384 0.781523 117.314 1.00759 117.321 1.23803V10.9596H93.9592C93.8792 10.8143 93.765 10.691 93.6267 10.6008C93.4885 10.5105 93.3304 10.456 93.1664 10.4421H93.0761C92.9279 10.4431 92.7817 10.4773 92.6481 10.5422C92.5145 10.6071 92.3968 10.7012 92.3034 10.8176L92.173 10.9799H90.1659V9.94486C90.167 9.80155 90.138 9.65963 90.081 9.52845C90.0239 9.39726 89.94 9.2798 89.8348 9.18378C89.6441 9.01353 89.3966 8.92285 89.1423 8.93008H89.0219L88.5603 8.99097C88.3416 9.02027 88.1385 9.12164 87.9825 9.2794C87.8265 9.43716 87.7262 9.64251 87.6973 9.86368C87.6733 10.2184 87.6733 10.5744 87.6973 10.9292H49.6038C49.5508 10.7022 49.4221 10.5005 49.2393 10.3582C49.0566 10.2159 48.8309 10.1416 48.6003 10.1478H48.1688C47.956 10.1577 47.7518 10.2358 47.5859 10.3708C47.4199 10.5058 47.3007 10.6907 47.2455 10.8988H41.0137L40.6424 10.6552C40.4809 10.5497 40.2928 10.4933 40.1005 10.4928H39.8296C39.6058 10.5562 39.4107 10.6961 39.2776 10.8886H30.7979L30.6875 10.8074V1.01478C30.6888 0.86899 30.659 0.724636 30.6001 0.59155C30.5412 0.458463 30.4546 0.339769 30.3463 0.243548C30.1589 0.0893262 29.9256 0.00351961 29.684 0H29.4532L29.102 0.0811826C28.8627 0.117879 28.6446 0.240791 28.4878 0.427271C28.3311 0.613752 28.2462 0.851235 28.249 1.09596V1.58306C28.249 4.70859 28.249 7.82735 28.249 10.9393H14.832V8.05737C14.8261 7.87208 14.7754 7.69107 14.6845 7.53011C14.5935 7.36915 14.465 7.23313 14.3101 7.13392C14.1296 6.98263 13.9024 6.90005 13.6679 6.90052H13.427L13.2564 6.95126H13.0658C12.8394 7.00281 12.6377 7.1321 12.495 7.31712C12.3523 7.50214 12.2774 7.73146 12.283 7.96604V10.9596H11.2093V9.16348C11.2093 8.89434 11.1035 8.63623 10.9154 8.44592C10.7272 8.25561 10.4719 8.1487 10.2058 8.1487H9.72407C9.45792 8.1487 9.20267 8.25561 9.01448 8.44592C8.82628 8.63623 8.72055 8.89434 8.72055 9.16348V10.5537H8.48975H8.32918H8.12848C7.96631 10.5732 7.8113 10.6324 7.6769 10.7262C7.50795 10.6114 7.30845 10.5512 7.10489 10.5537H6.10138V1.05537C6.10138 0.786236 5.99565 0.528123 5.80745 0.337814C5.61926 0.147506 5.36401 0.0405913 5.09786 0.0405913H4.5961C4.32995 0.0405913 4.07471 0.147506 3.88651 0.337814C3.69831 0.528123 3.59259 0.786236 3.59259 1.05537V8.68653C3.41966 8.57328 3.21644 8.51659 3.01055 8.52417H2.9102L2.41847 8.58506C2.17189 8.61265 1.94415 8.73162 1.77922 8.91903C1.61428 9.10643 1.52384 9.34897 1.52534 9.59984V10.8074C1.52002 10.8648 1.52002 10.9226 1.52534 10.9799H1.00352C0.737367 10.9799 0.482119 11.0869 0.293923 11.2772C0.105727 11.4675 0 11.7256 0 11.9947L0 12.3905C0 12.6596 0.105727 12.9177 0.293923 13.108C0.482119 13.2984 0.737367 13.4053 1.00352 13.4053L1.54541 13.3951Z" fill="white"/>
</mask>
<g mask="url(#mask0)">
<rect width="120" height="24" fill="url(#paint0_linear)"/>
</g>
<defs>
<linearGradient id="paint0_linear" x1="-1.33334" y1="11.5" x2="119.998" y2="12.3889" gradientUnits="userSpaceOnUse">
<stop stop-color="#00FFE1" stop-opacity="0.4"/>
<stop offset="0.510417" stop-color="#00FFE1"/>
<stop offset="1" stop-color="#00FFE1" stop-opacity="0.4"/>
</linearGradient>
</defs>
</svg>
