<svg width="120" height="24" viewBox="0 0 120 24" fill="none" xmlns="http://www.w3.org/2000/svg">
<mask id="mask0" mask-type="alpha" maskUnits="userSpaceOnUse" x="0" y="0" width="120" height="24">
<g clip-path="url(#clip0)">
<path d="M0.45005 12.8104C0.45005 13.0756 0.555407 13.33 0.742943 13.5175C0.930479 13.705 1.18483 13.8104 1.45005 13.8104H2.63005C2.69937 13.9811 2.81449 14.1293 2.96272 14.2387C3.11094 14.3481 3.28651 14.4145 3.47005 14.4304H3.55005L3.74005 14.7404C3.83012 14.8845 3.95543 15.0033 4.10416 15.0855C4.25288 15.1678 4.42011 15.2107 4.59005 15.2104H4.73005C4.80549 15.4151 4.94171 15.5919 5.12044 15.717C5.29917 15.8421 5.51188 15.9096 5.73005 15.9104C5.92314 15.9108 6.11373 15.8668 6.28712 15.7819C6.46051 15.6969 6.61205 15.5732 6.73005 15.4204C6.88734 15.2461 6.9823 15.0245 7.00005 14.7904V14.3504C7.14395 14.4178 7.30116 14.452 7.46005 14.4504C7.57942 14.4678 7.70068 14.4678 7.82005 14.4504H8.08005C8.15091 14.6596 8.28539 14.8415 8.46468 14.9706C8.64397 15.0997 8.85912 15.1696 9.08005 15.1704C9.25156 15.1671 9.42061 15.129 9.57701 15.0585C9.73342 14.9881 9.87392 14.8866 9.99005 14.7604C10.0542 14.6994 10.1083 14.6285 10.15 14.5504V14.5504C10.3418 14.5227 10.5213 14.4399 10.6669 14.3121C10.8125 14.1843 10.9178 14.0169 10.97 13.8304V13.7304H11.74C11.7994 13.8972 11.9019 14.0453 12.0372 14.1595C12.1725 14.2737 12.3357 14.3499 12.51 14.3804C12.5667 14.6004 12.6967 14.7946 12.8784 14.9309C13.0602 15.0672 13.283 15.1376 13.51 15.1304H14.11C14.27 15.131 14.4277 15.0933 14.57 15.0204L14.65 15.0704C14.8092 15.169 14.9928 15.221 15.18 15.2204C15.3112 15.2238 15.4414 15.1964 15.56 15.1404L15.76 15.0604L16 15.0004C16.1762 14.9259 16.3273 14.8025 16.4354 14.6447C16.5435 14.487 16.6041 14.3015 16.61 14.1104C16.7039 14.2202 16.8205 14.3083 16.9517 14.3687C17.0829 14.4291 17.2256 14.4604 17.37 14.4604H18.57L18.67 14.6904C18.7422 14.8718 18.8659 15.0281 19.0258 15.1401C19.1857 15.252 19.3749 15.3147 19.57 15.3204V15.3204C19.6593 15.3363 19.7508 15.3363 19.84 15.3204C20.0056 15.4316 20.2006 15.4908 20.4 15.4904V15.4904C20.5428 15.489 20.6836 15.457 20.813 15.3966C20.9423 15.3363 21.0573 15.2489 21.15 15.1404C21.2672 15.1904 21.3927 15.2175 21.52 15.2204H22.75C22.9246 15.3559 23.1391 15.4297 23.36 15.4304H23.44C23.6828 15.4116 23.9103 15.305 24.08 15.1304C24.1922 15.1711 24.3107 15.1914 24.43 15.1904H26C26.073 15.2008 26.1471 15.2008 26.22 15.1904C26.3316 15.2345 26.4501 15.2582 26.57 15.2604H27.65C27.884 15.2651 28.1122 15.1876 28.2949 15.0415C28.4776 14.8953 28.6033 14.6897 28.65 14.4604H28.73C28.8897 14.4303 29.0396 14.3617 29.1668 14.2607C29.294 14.1596 29.3946 14.0291 29.46 13.8804H30.3L30.65 14.4704L30.9 14.9204C30.9869 15.0749 31.1132 15.2035 31.2661 15.2931C31.4189 15.3827 31.5929 15.4301 31.77 15.4304H31.9C32.0966 15.4056 32.2814 15.323 32.431 15.193C32.5805 15.0631 32.6881 14.8916 32.74 14.7004V14.5004H34.2H34.41C34.5485 14.563 34.6981 14.597 34.85 14.6004H34.95L35.67 14.5304C35.8507 14.5136 36.0234 14.4479 36.1696 14.3405C36.3158 14.233 36.4301 14.0878 36.5 13.9204H37.12V14.6704C37.1129 14.8975 37.1832 15.1203 37.3195 15.302C37.4559 15.4838 37.65 15.6137 37.87 15.6704H38.12C38.3164 15.6577 38.5046 15.5873 38.6611 15.4681C38.8176 15.349 38.9355 15.1863 39 15.0004L39.7 13.7304H42.64C42.7088 13.9271 42.8374 14.0975 43.0077 14.2176C43.178 14.3377 43.3816 14.4016 43.59 14.4004H44.7C44.9044 14.4011 45.104 14.3391 45.2721 14.2229C45.4401 14.1067 45.5685 13.9418 45.64 13.7504H48.07L48.13 14.0104C48.18 14.2226 48.2978 14.4126 48.4657 14.5516C48.6336 14.6906 48.8423 14.7709 49.06 14.7804V14.7804C49.2709 14.7802 49.4764 14.7134 49.647 14.5895C49.8176 14.4656 49.9447 14.2909 50.01 14.0904L50.12 13.7704H50.53C50.5983 13.9655 50.7253 14.1347 50.8936 14.2547C51.0619 14.3747 51.2633 14.4396 51.47 14.4404H51.72C51.9227 14.439 52.1201 14.3761 52.2862 14.2601C52.4522 14.144 52.5791 13.9802 52.65 13.7904H55.3L55.48 14.0804C55.5689 14.2264 55.6937 14.3471 55.8425 14.4312C55.9913 14.5152 56.1592 14.5597 56.33 14.5604H56.5C56.6724 14.5326 56.8344 14.4602 56.97 14.3504C57.0816 14.3945 57.2001 14.4182 57.32 14.4204H58C58.2575 14.4194 58.5047 14.3191 58.69 14.1404C58.8734 14.3071 59.1122 14.3997 59.36 14.4004H60.11C60.3024 14.4 60.4906 14.3441 60.652 14.2395C60.8134 14.1348 60.9412 13.9858 61.02 13.8104H68.4401C68.5051 13.9622 68.6067 14.0955 68.7358 14.1985C68.865 14.3014 69.0176 14.3708 69.18 14.4004V14.9104C69.18 15.1756 69.2854 15.43 69.4729 15.6175C69.6605 15.805 69.9148 15.9104 70.18 15.9104C70.2518 16.1199 70.3862 16.3023 70.5651 16.4329C70.7439 16.5635 70.9586 16.6359 71.18 16.6404C71.523 16.6267 71.8481 16.4838 72.09 16.2404C72.1888 16.1463 72.2672 16.033 72.3205 15.9074C72.3738 15.7819 72.4009 15.6468 72.4001 15.5104V14.6404C72.5935 14.6391 72.7825 14.5818 72.944 14.4753C73.1055 14.3688 73.2327 14.2177 73.31 14.0404L73.43 13.7804H74.3001C74.3716 13.9718 74.5 14.1367 74.668 14.2529C74.8361 14.3691 75.0357 14.4311 75.24 14.4304H76C76.1535 14.4306 76.3047 14.3928 76.4401 14.3204V14.3204C76.5963 14.4172 76.7762 14.4691 76.96 14.4704C77.0495 14.485 77.1406 14.485 77.2301 14.4704L77.46 14.4104H77.52C77.6613 14.3698 77.7919 14.2986 77.9025 14.2018C78.0132 14.105 78.1011 13.985 78.1601 13.8504H80.61C80.6904 14.024 80.8188 14.1709 80.9801 14.2737C81.1414 14.3765 81.3288 14.4309 81.52 14.4304H84.35C84.4983 14.4326 84.6452 14.4019 84.78 14.3404C84.9363 14.4275 85.1113 14.4755 85.29 14.4804H86H86.1601C86.3331 14.6102 86.5437 14.6804 86.7601 14.6804H86.8701C87.0589 14.6574 87.2382 14.585 87.39 14.4704C87.4896 14.5122 87.5936 14.5424 87.7 14.5604V14.7404C87.7466 14.9497 87.8592 15.1385 88.0213 15.279C88.1833 15.4194 88.3862 15.5041 88.6 15.5204H88.68C88.8803 15.5206 89.076 15.4606 89.2419 15.3483C89.4077 15.236 89.5359 15.0765 89.61 14.8904L89.7601 14.5204C89.9581 14.5096 90.1485 14.4401 90.307 14.3208C90.4655 14.2015 90.5849 14.0378 90.65 13.8504H93.9101C93.9687 14.0686 94.0994 14.2604 94.281 14.3948C94.4626 14.5292 94.6843 14.5981 94.9101 14.5904H96C96.0781 14.7693 96.2068 14.9214 96.3703 15.028C96.5338 15.1346 96.7249 15.1911 96.92 15.1904H98.06C98.202 15.1902 98.3423 15.1598 98.4717 15.1012C98.601 15.0426 98.7163 14.9571 98.81 14.8504C98.8324 14.9487 98.8695 15.0431 98.92 15.1304L100.07 17.2004C100.156 17.3582 100.284 17.4898 100.439 17.5813C100.593 17.6728 100.77 17.7209 100.95 17.7204C101.02 17.7301 101.09 17.7301 101.16 17.7204C101.371 17.6733 101.561 17.5592 101.701 17.3952C101.842 17.2312 101.926 17.026 101.94 16.8104L102.02 15.6104L102.51 14.8204L102.67 14.5504C102.764 14.5813 102.861 14.5981 102.96 14.6004H103.08C103.26 14.7495 103.486 14.8308 103.72 14.8304C103.895 14.8293 104.066 14.7826 104.217 14.6949C104.368 14.6072 104.493 14.4815 104.58 14.3304C104.761 14.4948 104.996 14.5873 105.24 14.5904H105.62L105.68 14.7304C105.77 14.9001 105.903 15.0425 106.067 15.1428C106.231 15.2431 106.418 15.2975 106.61 15.3004C106.757 15.3003 106.903 15.2732 107.04 15.2204C107.202 15.179 107.35 15.0979 107.473 14.9844C107.595 14.8708 107.687 14.7285 107.74 14.5704L107.99 14.5004H108.19H109.72C109.916 14.5002 110.108 14.4423 110.272 14.3338C110.435 14.2254 110.563 14.0711 110.64 13.8904H111.54L111.91 14.6804C111.99 14.854 112.119 15.0009 112.28 15.1037C112.441 15.2065 112.629 15.2609 112.82 15.2604H113.82C114.042 15.2699 114.261 15.2052 114.442 15.0767C114.623 14.9481 114.756 14.763 114.82 14.5504H115.11C115.297 14.551 115.481 14.499 115.64 14.4004C115.778 14.463 115.928 14.497 116.08 14.5004H116.8C117.017 14.5124 117.232 14.4536 117.412 14.3327C117.593 14.2118 117.729 14.0355 117.8 13.8304H119C119.265 13.8304 119.52 13.725 119.707 13.5375C119.895 13.35 120 13.0956 120 12.8304V11.2704C120 11.0052 119.895 10.7508 119.707 10.5633C119.52 10.3757 119.265 10.2704 119 10.2704H117.81C117.739 10.079 117.61 9.91409 117.442 9.79788C117.274 9.68167 117.074 9.61973 116.87 9.62039H116.11C115.965 9.61962 115.822 9.65033 115.69 9.71039C115.57 9.64401 115.437 9.60316 115.3 9.59039H114.9C114.832 9.38155 114.698 9.20082 114.517 9.07612C114.336 8.95141 114.119 8.88966 113.9 8.90039H112.82C112.632 8.90093 112.447 8.95472 112.288 9.05557C112.129 9.15642 112.001 9.30022 111.92 9.47039L111.69 9.96039L111.55 10.2404H110.64C110.56 10.0668 110.431 9.91991 110.27 9.81711C110.109 9.71431 109.921 9.65992 109.73 9.66039H108.27H108.05C107.954 9.60964 107.848 9.57902 107.74 9.57039L107.66 9.26039C107.608 9.05009 107.49 8.86228 107.322 8.72522C107.154 8.58817 106.946 8.50927 106.73 8.50039V8.50039C106.511 8.48966 106.294 8.55141 106.113 8.67612C105.933 8.80082 105.798 8.98155 105.73 9.19039L105.59 9.61039H105.24C105.101 9.60945 104.964 9.63742 104.836 9.69251C104.709 9.74761 104.594 9.82862 104.5 9.93039C104.41 9.78957 104.285 9.67366 104.139 9.5933C103.992 9.51293 103.827 9.47067 103.66 9.47039H103.57H103.44C103.287 9.3753 103.11 9.32346 102.93 9.32039C102.822 9.32161 102.714 9.33845 102.61 9.37039L102.33 9.00039L102 8.53039V8.24039V7.32039C101.988 7.1044 101.907 6.89798 101.768 6.7321C101.63 6.56622 101.441 6.44983 101.23 6.40039C101.154 6.38997 101.076 6.38997 101 6.40039C100.826 6.40145 100.654 6.44815 100.503 6.53587C100.353 6.62358 100.227 6.74926 100.14 6.90039L99.34 8.20039L98.88 9.00039C98.84 9.06207 98.8097 9.12952 98.79 9.20039C98.6966 9.0968 98.5824 9.01392 98.455 8.95709C98.3275 8.90025 98.1896 8.87072 98.0501 8.87039H96.92C96.6943 8.86266 96.4726 8.93159 96.291 9.06597C96.1094 9.20034 95.9786 9.39223 95.92 9.61039H94.82C94.6238 9.61055 94.4318 9.66848 94.2683 9.77695C94.1047 9.88542 93.9766 10.0396 93.9 10.2204H90.64C90.5773 10.0605 90.4744 9.91941 90.3413 9.81082C90.2082 9.70222 90.0493 9.62975 89.88 9.60039V9.50039C89.857 9.29056 89.7682 9.09338 89.6263 8.93711C89.4844 8.78083 89.2967 8.67347 89.09 8.63039H88.89C88.7129 8.6307 88.5389 8.67808 88.386 8.76769C88.2332 8.85731 88.1069 8.98593 88.02 9.14039L87.8001 9.52039V9.59039H87.71L87.4801 9.64039C87.3346 9.51424 87.1589 9.42809 86.97 9.39039H86.8001C86.5916 9.39174 86.3889 9.45817 86.22 9.58039C86.147 9.57063 86.0731 9.57063 86 9.58039H85.9101L85.3701 9.63039H85.1901C85.0604 9.64107 84.9344 9.67853 84.82 9.74039C84.6766 9.65996 84.5145 9.61858 84.35 9.62039H81.5C81.3026 9.62138 81.1099 9.68078 80.9462 9.79111C80.7825 9.90145 80.6551 10.0578 80.5801 10.2404H78.13C78.0602 10.0471 77.9324 9.88007 77.7643 9.76198C77.5961 9.64389 77.3956 9.58048 77.1901 9.58039H77C76.8356 9.57858 76.6735 9.61996 76.53 9.70039C76.3786 9.61052 76.2061 9.56222 76.03 9.56039H75.9401H75.54H75.1901C74.9961 9.57768 74.8113 9.65123 74.6586 9.77203C74.5058 9.89283 74.3916 10.0556 74.3301 10.2404H74C73.8356 10.2386 73.6735 10.28 73.53 10.3604L73.25 9.89039C73.1628 9.73926 73.0375 9.61358 72.8866 9.52587C72.7358 9.43815 72.5646 9.39145 72.39 9.39039V8.09039C72.3972 7.8633 72.3269 7.64053 72.1905 7.45877C72.0542 7.277 71.8601 7.14708 71.64 7.09039C71.4266 7.03583 71.201 7.0533 70.9985 7.1401C70.796 7.2269 70.6278 7.37817 70.52 7.57039L70.2301 8.09039H70.13C69.889 8.10935 69.6629 8.21502 69.4938 8.38785C69.3246 8.56068 69.2238 8.78895 69.21 9.03039V9.12039V9.58039C69.055 9.61243 68.9098 9.68081 68.7864 9.7799C68.663 9.87899 68.5648 10.006 68.5 10.1504H61.05C60.9676 9.98209 60.8395 9.84035 60.6803 9.74133C60.5212 9.64232 60.3375 9.59002 60.15 9.59039H59.38C59.1417 9.59038 58.9112 9.67549 58.73 9.83039C58.631 9.74245 58.5154 9.67506 58.3901 9.63215C58.2648 9.58923 58.1322 9.57164 58 9.58039H57.29C57.1335 9.58133 56.9794 9.61901 56.84 9.69039C56.6838 9.59355 56.5039 9.54165 56.32 9.54039H56.07C55.8443 9.53266 55.6226 9.60159 55.441 9.73597C55.2594 9.87034 55.1286 10.0622 55.07 10.2804V10.3404H54.87C54.7971 10.33 54.723 10.33 54.65 10.3404C54.5129 10.274 54.3624 10.2398 54.21 10.2404H52.72L52.65 9.94039C52.6001 9.72823 52.4823 9.53819 52.3144 9.3992C52.1465 9.2602 51.9378 9.17986 51.72 9.17039V9.17039C51.5007 9.15966 51.284 9.22141 51.1032 9.34612C50.9225 9.47082 50.7879 9.65155 50.72 9.86039L50.62 10.1804H50.21C50.1413 9.98364 50.0127 9.8133 49.8424 9.69317C49.6721 9.57304 49.4685 9.50914 49.26 9.51039H49C48.7957 9.50973 48.5961 9.57167 48.428 9.68788C48.26 9.80409 48.1316 9.96899 48.06 10.1604H45.64C45.5635 9.97964 45.4354 9.82542 45.2718 9.71695C45.1082 9.60848 44.9163 9.55055 44.72 9.55039H43.59C43.3707 9.53966 43.154 9.60141 42.9732 9.72612C42.7925 9.85082 42.6579 10.0315 42.59 10.2404H41.88H41.64C41.5205 10.187 41.391 10.1597 41.26 10.1604H39.69L39.13 9.16039L39 9.00039C38.9115 8.85112 38.7857 8.72744 38.6349 8.64153C38.4841 8.55562 38.3136 8.51042 38.14 8.51039C38.0537 8.50056 37.9664 8.50056 37.88 8.51039C37.6619 8.56899 37.47 8.69973 37.3356 8.88132C37.2012 9.0629 37.1323 9.28463 37.14 9.51039V10.2204H36.49C36.4185 10.029 36.2901 9.86409 36.122 9.74788C35.954 9.63167 35.7544 9.56973 35.55 9.57039H34.69C34.556 9.50544 34.409 9.47128 34.26 9.47039H32.72C32.6818 9.2691 32.5826 9.08442 32.436 8.94133C32.2893 8.79825 32.1022 8.70367 31.9 8.67039H31.74C31.5629 8.6707 31.3889 8.71808 31.2361 8.80769C31.0832 8.89731 30.9569 9.02593 30.87 9.18039L30.24 10.2804H29.34L29.21 10.0004C29.1433 9.86992 29.0487 9.75571 28.9329 9.66585C28.8171 9.57599 28.683 9.51267 28.54 9.48039C28.4659 9.29433 28.3377 9.1348 28.1719 9.02247C28.006 8.91015 27.8103 8.8502 27.61 8.85039H26.61C26.5203 8.84072 26.4298 8.84072 26.34 8.85039C26.2254 8.80507 26.1033 8.78133 25.98 8.78039H24.42C24.304 8.779 24.1886 8.79935 24.08 8.84039C23.9187 8.68421 23.7123 8.58275 23.49 8.55039H23.37C23.114 8.54872 22.867 8.64536 22.68 8.82039H21.46C21.2941 8.84098 21.1359 8.90287 21 9.00039C20.8189 8.84549 20.5884 8.76038 20.35 8.76039H20.23C20.0514 8.61709 19.829 8.53943 19.6 8.54039V8.54039C19.3909 8.54264 19.1877 8.61043 19.0191 8.7342C18.8504 8.85798 18.7249 9.03152 18.66 9.23039L18.54 9.58039H17.3C17.1612 9.57945 17.0238 9.60742 16.8964 9.66251C16.769 9.71761 16.6544 9.79862 16.56 9.90039V9.85039C16.56 9.58518 16.4547 9.33082 16.2672 9.14329C16.0796 8.95575 15.8253 8.85039 15.56 8.85039H15.22C15.0362 8.85165 14.8563 8.90355 14.7 9.00039C14.5526 8.92082 14.3876 8.87956 14.22 8.88039H13.55C13.3307 8.86966 13.114 8.93141 12.9332 9.05612C12.7525 9.18082 12.6179 9.36155 12.55 9.57039C12.3747 9.59231 12.2083 9.66031 12.0678 9.76747C11.9272 9.87462 11.8176 10.0171 11.75 10.1804H11V10.1104C10.9427 9.96799 10.8533 9.84069 10.7389 9.73838C10.6244 9.63607 10.488 9.56148 10.34 9.52039C10.2798 9.34316 10.171 9.1864 10.026 9.06795C9.88104 8.9495 9.70574 8.87412 9.52005 8.85039H9.27005H9.07005C8.8456 8.84209 8.6249 8.9096 8.44349 9.04202C8.26208 9.17445 8.13054 9.36409 8.07005 9.58039V9.64039H8.00005C7.8255 9.50493 7.611 9.43108 7.39005 9.43039H7.23005C7.15098 9.43965 7.07357 9.45984 7.00005 9.49039V8.86039C7.00835 8.63595 6.94085 8.41524 6.80842 8.23383C6.67599 8.05243 6.48635 7.92088 6.27005 7.86039C6.18064 7.84583 6.08946 7.84583 6.00005 7.86039C5.82651 7.86042 5.65596 7.90562 5.50517 7.99153C5.35439 8.07744 5.22856 8.20112 5.14005 8.35039L4.94005 8.69039C4.86708 8.68 4.79301 8.68 4.72005 8.69039H4.60005C4.40769 8.69079 4.21953 8.74667 4.05812 8.85132C3.89671 8.95596 3.76892 9.10494 3.69005 9.28039L3.54005 9.62039H3.48005C3.28062 9.63805 3.09109 9.71516 2.93598 9.84175C2.78087 9.96833 2.66733 10.1386 2.61005 10.3304L2.37005 10.3904H2.16005H1.41005C1.27606 10.3896 1.14328 10.4158 1.01959 10.4673C0.895909 10.5188 0.783842 10.5947 0.69005 10.6904C0.59674 10.787 0.523856 10.9015 0.475749 11.0269C0.427642 11.1523 0.405298 11.2861 0.41005 11.4204V12.1004L0.45005 12.8104Z" fill="white"/>
</g>
</mask>
<g mask="url(#mask0)">
<rect width="120" height="24" fill="url(#paint0_linear)"/>
</g>
<defs>
<linearGradient id="paint0_linear" x1="-1.33334" y1="11.5" x2="119.998" y2="12.3889" gradientUnits="userSpaceOnUse">
<stop stop-color="#00FFE1" stop-opacity="0.4"/>
<stop offset="0.510417" stop-color="#00FFE1"/>
<stop offset="1" stop-color="#00FFE1" stop-opacity="0.4"/>
</linearGradient>
<clipPath id="clip0">
<rect width="120" height="24" fill="white"/>
</clipPath>
</defs>
</svg>
