<svg width="336" height="32" viewBox="0 0 336 32" fill="none" xmlns="http://www.w3.org/2000/svg">
<mask id="mask0" mask-type="alpha" maskUnits="userSpaceOnUse" x="0" y="0" width="336" height="32">
<g clip-path="url(#clip0)">
<path d="M0 16.3902H7.3L7.79 15.6502L7.99 16.3602H11.53L11.93 15.6002L12.21 16.3602H13V8.80016L13.34 8.68016C13.39 8.77016 13.48 8.84016 13.48 8.91016C13.48 11.3702 13.48 13.8302 13.48 16.3402H15.8L15.88 15.2602L16.29 15.1902V16.3602H20V0.450156H20.44V16.3302H26L26.14 15.8202H26.41L26.67 16.5202L27.44 15.5902V14.6802H27.88V16.3902L28.76 16.4502L28.92 15.8902H30.18L30.33 16.4402H30.62L30.77 15.9002H31.58L31.71 16.4002H32.1V15.3302C32.62 14.9802 32.53 15.5602 32.67 15.7702H33.38L33.8 15.0602L34.08 15.8002H34.87V13.5102L35.32 13.4102V15.5402L36.09 16.3602H36.73L36.81 15.8602L37.72 15.7502V14.3602C37.97 14.7002 38.07 14.8402 38.17 14.9602C38.27 15.0802 38.49 15.2702 38.64 15.4402C38.79 15.6102 38.83 15.7202 39.05 16.0602V14.8702L40 13.8702V7.06016L40.32 6.91016C40.4 6.99016 40.5 7.05016 40.5 7.11016V15.0002L41.18 15.7702H43.69L43.82 15.2802L44.14 15.2202L44.3 15.7902H45.57L45.66 15.3102L46.1 15.1902V16.6402L46.74 15.8802H47.82L48.06 15.2302H48.34L48.48 15.7802H49.73L50.1 14.9502L50.37 15.8002H52.42L53.48 14.4102L53.59 15.8202H54V4.00016H54.47V14.5002L54.94 14.6702V15.6702C55.0469 15.7286 55.1613 15.7724 55.28 15.8002H62.82L62.98 16.3602C63.08 16.3602 63.19 16.4302 63.22 16.3602C63.25 16.2902 63.36 16.0702 63.49 15.7902H65.17L65.29 15.2302H67L67.17 14.6302H68L68.14 15.1502H69.38L69.63 14.4302L70.22 15.3202L70.54 14.4902L71.54 15.7302H72.15L72.54 14.9302L72.81 15.7402H74.6V14.6602L75 14.6102L75.09 15.7402H75.84L76.23 16.6002L76.65 15.6802L77.05 16.3602H78.2L78.47 15.5802C78.62 15.8702 78.68 16.0002 78.76 16.1202C78.84 16.2402 78.93 16.3502 79.1 16.5802L79.26 15.8602H81.42L81.71 15.0902L82.33 15.9702L82.56 15.2402H83.8L84 15.8902L84.53 15.2702H89.38L89.58 15.8002H89.89L90 14.3902L91.23 16.0002L91.4 14.6802L91.73 14.6202L91.88 16.0002L92.54 15.1202L92.91 15.9202L94 14.4302L94.14 15.7302H95.46L95.54 15.2702H96.34L96.54 15.8002H96.81L96.96 15.2402H98.16L98.58 14.3502L98.85 15.1802H99.57L100.07 14.3202L100.22 15.7902H100.57L100.67 14.6002H101.05L101.13 15.7302L101.54 15.8002V14.6702C101.781 14.796 101.982 14.9864 102.12 15.2202H103.34L103.54 15.9302L104.67 14.5102L104.89 15.1802H107.89L108.58 16.0702V14.3502L109.24 15.2002H109.9L110.02 15.7502H110.86L110.95 14.7502C111.49 14.2302 111.26 15.4002 111.75 15.1902L111.92 14.6802H112.69L112.89 15.3202L113.46 14.6702H114.63V0.470156H115.49C115.533 0.571995 115.56 0.679969 115.57 0.790156V14.5502L116 14.6602L116.06 15.7602L116.49 15.8102V14.7302C117.02 14.3902 116.91 14.9802 117.06 15.1802H117.82L117.98 14.6302H118.72L118.94 15.2102H119.18L119.57 14.3502L119.84 15.1902H122.42C122.63 15.4102 122.49 16.0302 123.03 15.7002V14.7002L123.42 14.6302L123.53 15.7702H125.34V14.7202L125.74 14.6102L125.81 15.6102L126.58 16.6102L126.82 15.8902H130.42V8.23016L130.75 8.09016C130.81 8.17016 130.91 8.23016 130.91 8.30016C130.91 10.3602 130.91 12.4302 130.91 14.3602L132.06 15.7602H132.7L132.84 15.2402H134.08L134.32 15.9202L135.43 14.4702L135.62 15.1602H136.84L137.13 15.9302L137.74 15.0502L137.98 15.7702H139.68L139.76 15.4902C139.789 15.4019 139.822 15.3151 139.86 15.2302H141.07L141.21 15.7402H142L142.25 15.0902L142.87 15.9602L143.1 15.2302H143.86L144.11 14.5102L145.02 15.7902H146.68L146.81 15.3002H147.6L148 16.0002L148.42 15.0602L148.85 15.7502H149.53L149.74 15.0302L150.24 15.6902H153.69L154.29 14.8102V13.5302C154.62 13.3502 154.72 13.4502 154.77 13.8502C154.77 14.0402 155.06 14.1702 155.21 14.3302L155.66 14.7902V15.7902H157.48V14.7402L157.87 14.6302L157.97 15.8102H158.79L158.93 15.2902L159.78 15.2302V14.0502H160.22V15.1402H161.59L161.77 14.5002L162.77 15.7602H163.42L163.54 15.2802L164.3 15.1802L164.7 14.4102L164.98 15.1802H166.68L166.87 14.4902L167.37 15.1602H168.06L168.42 14.3502L168.7 15.2002H170.42L170.52 15.7702C171.85 15.8402 173.22 15.7702 174.62 15.7702L174.71 15.2402H175.53L175.66 15.7002H176.49L176.6 14.3502L177.9 16.0002L178.07 14.6902H178.49V16.0902L179.61 14.7102H180.26L180.51 15.3802L181.64 13.8702L181.83 15.4002L182.55 14.5202L182.73 15.2102H183.49L183.78 15.9902L184.2 15.2802H184.92L185.09 15.8102H186.84V14.1302L187.28 13.9702L187.37 15.7502H188.65L188.89 15.0802L189.51 15.9702L189.75 15.2402H190.51L190.68 15.7702H191.55V14.3602L192.15 15.1602H192.75L193.34 16.0802V14.8802L194.18 13.9502C194.52 14.5402 194.18 15.2302 194.45 15.8802L195.25 14.9902V14.0802H196.14L196.21 15.0102L197.08 16.0102V14.0802L198.08 14.0102V16.0102L198.71 15.2502H199.89L199.98 15.7302H201.3V13.5002L201.75 13.4302V15.5502L202.64 16.5502C202.64 16.2302 202.72 16.0202 202.73 15.8102C202.74 15.6002 202.73 15.4502 202.73 14.9402L203.38 15.8302H204L204.14 15.2902L204.51 15.2102L204.59 16.3802H205.44V15.4902L206.33 14.4902L206.46 15.7402H207.25L207.93 14.6702H209.08L210.08 16.0302L210.21 14.8402L210.94 13.9302C210.991 14.1281 211.065 14.3194 211.16 14.5002C211.25 14.6202 211.41 14.6502 211.59 14.7402V15.7402H212.48L212.55 14.6402H213.44V15.7502H214.44V13.8202L215.35 14.8202V15.7402H216.23V13.5002L216.7 13.4102L216.76 14.5902L217.66 14.6502V15.7702H218.09V14.6802L219.04 14.5802V12.5302L219.92 11.5302C220.001 12.2572 220.024 12.9894 219.99 13.7202C219.99 14.4002 219.99 15.0802 219.99 15.8102H220.9V10.5302H221.38V14.0002L221.81 14.1402V15.7302L222.14 15.8702C222.21 15.7902 222.31 15.7302 222.31 15.6702C222.31 12.8102 222.31 9.96016 222.31 7.07016L222.62 6.96016C222.68 7.05016 222.77 7.12016 222.77 7.19016V10.8802L223.68 11.9302V12.8502H224.16V11.6902H224.64V13.0902L225.38 12.1602L225.68 12.8402H226L226.08 11.7102L226.46 11.6502V13.3202L226.93 13.4902V14.3702L227.68 15.2002H229.68L229.82 14.6802H230.65L230.75 15.1602H231.56L231.7 14.6602H231.98C232.34 14.9602 231.79 15.6602 232.44 15.9002L232.69 15.1802L233.23 15.7802H236.23L236.31 14.4202L237.42 15.8902L238.49 14.4602C238.56 15.0302 238.6 15.4602 238.67 16.0002L239.21 15.3102H241.28L241.44 14.7102H242.28L242.34 15.8002L242.77 15.8502V14.6502H244.5L245.25 15.7602H246.49C246.49 15.3902 246.49 15.0602 246.49 14.6702H247.17L248.32 13.1202V9.32016H248.8V10.4302L249.22 10.5002L249.29 8.79016L249.66 8.65016C249.82 9.65016 249.66 10.6502 249.76 11.6002L250.15 11.7002L250.23 12.7002C250.382 12.8233 250.526 12.957 250.66 13.1002C250.785 13.316 250.895 13.5398 250.99 13.7702C251.08 13.0602 251.13 12.6802 251.21 12.1202C251.55 12.5602 251.93 12.7702 252.13 13.3602H252.88C252.94 13.5802 252.98 13.7502 253.03 13.9102L253.44 14.1302V15.1302H254.28L254.42 14.6102H256.17V15.7102L257.11 15.7702V14.6902H257.97L258.53 15.5402L258.62 16.5902L259.43 15.5902V14.8902L260.2 13.8902L260.52 14.4902H261.28L261.42 13.9702H261.76L261.84 15.6802L262.18 15.7602L262.34 15.1802L263.19 15.1202V9.33016H263.63V12.1202L264.15 12.3502V13.4002H264.55C264.55 12.8402 264.6 12.2802 264.63 11.6802L265.03 11.5602V14.0002H266.33L266.92 13.1602V14.7702C267.364 14.3905 267.751 13.9494 268.07 13.4602C268.46 13.3402 268.2 14.2302 268.68 14.0802C268.86 14.0202 268.68 14.8302 269.21 14.6002V13.7002L270.12 12.7002C270.12 13.1902 270.18 13.5402 270.19 13.9002C270.2 14.2602 270.19 14.6802 270.19 15.1502H271.55L271.63 14.6902H272.49L272.59 16.0202L273.42 15.0202L273.47 16.3202C273.95 16.6502 273.88 16.1102 274.02 15.8302H274.76L274.95 15.2202H276.2L276.29 14.7102H277.13L277.23 15.1902H278.04L278.18 14.6802H279V12.5102L279.82 11.6002C280.19 12.1502 279.82 12.7702 280.07 13.3102C280.16 13.4202 280.3 13.6102 280.45 13.7702C280.6 13.9302 280.72 14.0102 280.91 14.1902V15.7302L281.28 15.8302L281.44 15.2302H282.29V13.8502C282.78 14.3302 283.17 14.6002 283.34 15.1902L284.1 15.2402L284.26 15.7902H284.58L284.68 14.6502H286L286.36 15.4602L286.63 14.6302H287.48V16.3402H288V15.3402L288.52 15.1102V13.2002C288.85 13.5902 289.03 13.8002 289.2 14.0302C289.37 14.2602 289.5 14.4502 289.71 14.7502L290.09 13.9002L290.65 14.7802C290.834 14.2958 290.892 13.7731 290.82 13.2602C290.82 12.7702 290.82 12.2602 290.82 11.7602L291.23 11.6002L291.32 13.3802H292.17C292.17 13.9902 292.22 14.5502 292.25 15.1602H293.12V12.9002L293.6 12.8402V14.0002H294.96L295.04 13.4902L295.92 13.3902V10.0002L296.34 9.84016C296.5 10.8402 296.34 11.8402 296.45 12.7902L296.83 12.9002C296.83 12.3002 296.88 11.7302 296.91 11.1402L297.29 11.0602V13.1902L298 14.0002H298.64V12.3302L299.12 12.2402L299.17 13.3702H300.45L300.59 13.9702H301.41V2.85016L301.89 2.76016V5.65016L302.33 5.79016V13.3802H304.21V14.9402L305.11 16.0102L305.21 14.7502C305.362 14.6372 305.506 14.5135 305.64 14.3802C305.718 14.238 305.778 14.0869 305.82 13.9302L306.57 14.8602V12.0602L307.49 13.0602V14.9702L308.4 16.0702V0.480156L308.85 0.410156V15.0002L309.62 15.8202H310.69L310.85 15.2302H312.61V12.3502L313.03 12.2102C313.18 13.2102 313.03 14.1602 313.13 15.1602H314L314.13 14.6602H315L315.11 15.1502L315.92 15.2502L316.08 15.7702H316.88L316.96 15.2502L317.79 15.1802L317.94 14.6202H318.23L318.38 15.1602H319.16L319.32 15.7602L319.67 15.8102V14.7502L320.19 14.5402V13.2302L320.88 14.0002H321.56L321.61 15.1402L321.99 15.2502L322.09 14.1202L322.53 13.9102V12.2902H323.44V13.3502L323.87 13.4902V14.3602L324.74 15.3602L324.89 14.6802H325.67L325.83 14.0802H326.68L326.74 15.1702L327.17 15.2202V13.4602H327.65V14.5602L327.95 14.6202C327.984 14.6026 328.015 14.5789 328.04 14.5502C328.04 14.5502 328.11 14.4802 328.11 14.4402V4.66016L328.42 4.54016C328.48 4.63016 328.57 4.70016 328.57 4.76016C328.57 8.01016 328.57 11.2602 328.57 14.5602H330.3L330.59 15.3402L331.18 14.4902L331.53 15.2902L332.27 14.3702V2.30016L332.61 2.17016C332.67 2.26016 332.75 2.33016 332.75 2.40016C332.75 6.40016 332.75 10.4702 332.75 14.5702H333.61L333.74 14.0702H334.59V15.8802C335.21 15.6002 335.41 14.8802 335.9 14.5102C336.019 15.1428 336.056 15.7881 336.01 16.4302C336.01 17.0102 336.01 17.5802 336.01 18.4302L335.31 17.5802C335.13 17.3602 334.96 17.1402 334.63 16.7502V18.7502H333.74L333.64 18.2402L332.78 18.1802V30.4702L332.43 30.6202C332.38 30.5402 332.29 30.4702 332.29 30.4102C332.29 26.4102 332.29 22.3302 332.29 18.4102L331.57 17.4902C331.49 17.5805 331.423 17.6814 331.37 17.7902C331.302 17.9544 331.252 18.1254 331.22 18.3002L330.59 17.3902L330.33 18.1402H328.6V28.0802L328.26 28.2202C328.2 28.1402 328.11 28.0702 328.11 28.0102C328.11 24.7602 328.11 21.5102 328.11 18.2302L327.7 18.0902C327.7 18.5302 327.63 18.9302 327.6 19.3202H327.21V17.6402L326.73 17.5602V18.7302H325.83L325.75 18.2402L324.92 18.1202L324.74 17.4702L323.92 18.4002V19.2802L323.49 19.4002L323.42 20.5002H322.57V18.8902L322.05 18.6802V17.6102H321.61V18.7002H320.8L320.55 19.3502H320.25L320.15 18.2702L319.74 18.0702V17.0702C319.48 16.8502 319.41 16.9102 319.21 17.5502H318.42L318.34 18.0302C318.02 18.3402 317.91 18.1202 317.88 17.5802H317L316.88 17.0202H316L315.9 17.5202H315.12L314.95 18.1102H314.15L314.05 17.6102L313.19 17.5502V20.3902L312.87 20.5402C312.8 20.4602 312.7 20.4002 312.7 20.3402C312.7 19.4502 312.7 18.5702 312.7 17.5802H310.9L310.78 17.0202H309.55L308.94 17.8902V32.3202H308.51V16.8002L307.59 17.7502V19.6702L306.67 20.7702V18.3302C306.07 17.8302 306.28 18.7302 305.94 18.7702L305.23 17.8902V17.0002C305.04 17.0002 304.89 17.0002 304.84 17.1002C304.79 17.2002 304.75 17.4502 304.66 17.5802C304.57 17.7102 304.45 17.6402 304.31 17.6702V19.3002H302.47V26.9202L301.95 27.1602V30.0002H301.55V18.8202L300.67 18.7502L300.49 19.3702H299.2V20.4602L298.8 20.5902L298.72 18.8102H297.96L297.33 19.6702V21.6702H296.89V20.0002H296.45V22.8202L296.12 22.9502C296.06 22.8702 295.96 22.8002 295.96 22.7402C295.96 21.6602 295.96 20.5802 295.96 19.3902H295.1L294.98 18.8402H293.68L293.6 19.9202L293.18 19.9902V17.6102H292.28V19.2802L291.28 19.4002V21.0002L290.84 21.1802C290.71 20.1802 290.84 19.1802 290.74 18.0102C290.586 18.117 290.448 18.2449 290.33 18.3902C290.231 18.5845 290.154 18.7891 290.1 19.0002L289.67 18.0002L288.6 19.4302C288.468 18.8874 288.421 18.3274 288.46 17.7702L287.6 16.7702L287.49 18.1002H286.68L286.42 17.4102L286 18.1202H284.77V17.1202C284.38 16.7502 284.27 16.9802 284.24 17.4702H283.58L282.45 19.0002L282.37 17.6002L281.57 17.5402C281.4 17.3702 281.57 16.7502 281.04 17.0502V18.5002L280.04 19.5902V21.3502L279.12 20.2502V18.2002L278.28 18.1402L278.12 17.6002H277.36L277.2 18.1302H276.4L276.3 17.5902H275L274.9 17.0002H273.63L273.39 17.6502L272.66 16.7602V18.0702L271.77 18.1302L271.61 17.5702H270.26V20.1402L269.38 19.0602L269.27 17.8802L268.21 19.3502L267.09 17.9002C267.09 18.5202 267.01 18.9002 266.98 19.3102H266.64L266.49 18.7602H265.17V21.0602H264.69V19.3802H264.25V20.3802L263.77 20.5902V23.3702L263.43 23.4702C263.38 23.3802 263.3 23.3102 263.3 23.2302C263.3 21.3702 263.3 19.5002 263.3 17.5802H262.47L262.3 17.0002L261.91 16.9502V18.9502L261.16 18.2102H260.59L260.39 18.9202L259.56 17.9802V17.0002H258.77L258 18.1402H257.25V17.0602H256.31L256.26 18.1102H254.49L254.38 17.6302H253.54L253.47 18.5102L252.81 19.3302H252.27L251.27 20.7202L251.1 19.1602L250.24 20.1602V21.0002L249.76 21.2202V24.0002H249.32V22.3402H248.84V23.4502L248.45 23.5102C248.29 22.1702 248.45 20.8102 248.37 19.6002L247.21 18.1802H246.54V17.0002H245.27L244.51 18.1102H242.82L242.75 17.0002H242.38L242.28 18.1402H241.47L241.33 17.6302H239.33L238.64 16.7302V18.1002C238.42 18.2002 237.98 17.7402 237.48 16.9902L236.32 18.4502V17.0002H233.13L232.88 17.7202L232.2 16.7202L232 18.1602H231.68L231.53 17.6202H230.73L230.59 18.1302H229.79L229.64 17.6102H227.6L226.96 18.4602V19.2502L226.52 19.4502V21.0502L226.09 21.1702L226 20.0002H225.69L225.41 20.7202L224.77 19.7202L224.6 21.0902L224.26 21.1502L224.09 20.0002H223.82C223.82 20.0702 223.69 20.1402 223.69 20.2102C223.69 20.5002 223.69 20.7902 223.69 20.9702L222.69 22.0202V25.8802H222.25V17.0002H221.82V18.6302L221.34 18.8402V22.2002L220.91 22.3502C220.77 20.5702 220.91 18.8202 220.83 17.0302H220C220 17.0302 220 17.0302 220 17.0802V21.2502C219.823 21.1297 219.656 20.996 219.5 20.8502C219.38 20.7302 219.28 20.5802 219.08 20.3302V18.2502L218.08 18.1102V17.0002L217.69 16.9402L217.59 18.0802H216.75L216.65 19.2602L216.26 19.3602V17.0002H215.35V17.8802L214.49 18.8202C214.365 18.2288 214.314 17.6241 214.34 17.0202H213.46L213.41 18.0802H212.55L212.46 17.0002H211.61L211.55 17.8002L210.9 18.8002L210.16 17.8702V16.7402L209 18.1202H208L207.26 17.0202H206.47V18.3802C206.059 17.9778 205.721 17.5075 205.47 16.9902H204.74L204.59 17.5202L204.27 17.5902L204 17.0002H203.25L202.86 17.7902L202.59 17.0002H201.77V19.2302L201.33 19.3902V17.0002H200L199.87 17.4902H198.68L198.11 16.7002V18.4802C198.04 18.5902 198.02 18.6602 197.99 18.6602L197.13 18.7402V16.7402L196.21 17.7402V18.6602H195.35L195.27 17.7302L194.37 16.7302V19.0002L193.9 18.5002L193.41 18.0202V16.7202L192.82 17.5302H192.22L191.59 18.5302V17.0002H190.69L190.6 17.5102H189.8L189.59 16.8102L188.91 17.6502L188.72 16.9702H187.41V18.7002L186.93 18.7802V17.0002H185.1L185.01 17.5102H184.26L183.83 16.7702L183.54 17.5002H182.83L182.57 18.2102L181.8 17.2702V18.6502C181.61 18.6502 181.42 18.6502 181.41 18.6502C181.27 18.0802 180.83 17.8902 180.52 17.2602L180.34 18.0502H179.62L178.53 16.6402V18.0802H178V16.7302L176.68 18.3702L176.58 17.0002H175.76L175.62 17.5102H174.82L174.67 16.9802H170.67L170.49 17.5602H168.8C168.781 17.6653 168.754 17.7689 168.72 17.8702C168.683 17.9937 168.636 18.1141 168.58 18.2302L168.1 17.6002H167.44L166.99 18.3002L166.79 17.5802H165L164.82 18.2102L164.2 17.5802L163.58 17.5102L163.49 17.0202H162.71L161.84 18.3502L161.59 17.5802H160.27V18.7002H159.83V17.6002L158.94 17.5102L158.79 16.9602H158L157.91 18.0802L157.53 18.1702L157.48 17.0002H155.7V17.8102L154.3 19.5502L154.23 17.7702L153.57 17.0102H150.14L149.78 17.8202L149.51 16.9902H148.74L148.47 17.7802L148.03 16.9002L147.56 17.4902H146.84L146.74 17.0002H145.06L144.24 18.2302L143.84 17.5902L143.14 17.5102L142.95 16.8502L142.26 17.6902L142.08 17.0002H141.27L141.13 17.5102H139.87L139.72 16.9902H138C138 17.0802 137.95 17.1702 137.92 17.2502L137.79 17.6302L137.1 16.8002L136.94 17.4902H135.72L135.43 18.2602L134.34 16.8402L134.1 17.5302H132.9L132.75 17.0202H132.05L130.93 18.4402V24.6002L130.49 24.6502V17.0002H125.86V18.0002L125.43 18.1902L125.32 17.0102H123.54L123.45 18.0702L123.07 18.1702L123 16.7002L122.47 17.5602H119.92L119.64 18.3602L119.1 17.4302L118.79 18.1102H118L117.9 17.6302H117.1L116.9 18.1702H116.57V17.0002H116V18.1002L115.56 18.2502V32.3002H114.62V18.2302H113.31L113.15 17.6302L112.83 17.5502L112.67 18.1302H112L111.62 17.3202L111.34 18.1402H110.99V17.0502H110L109.91 17.5202H109.13L108.96 18.1102L108.6 18.2002L108.52 17.0902C108.27 16.8602 108.2 16.9302 108 17.5702H105L104.76 18.2902L103.63 16.8402L103.45 17.5302H102.31L101.65 18.4702V17.0002H101.17V18.0902L100.78 18.1702L100.6 17.0002H100.25L100.14 18.1902H99.81L99.67 17.6402H98.88L98.52 18.4702L98.24 17.6002H97L96.78 16.9202L96.25 17.5302H95.56L95.46 17.0602H94.16L94.07 18.0602C93.54 18.5002 93.74 17.5302 93.49 17.5802C93.05 17.6802 93.29 17.0102 92.89 16.9602L92.49 17.6502L91.85 16.7202L91.73 18.1602H91.35L91.23 16.7602L90.57 17.5702C90.42 17.7702 90.28 18.0002 90.02 18.3902L89.83 16.8402L89.27 17.5102H84.44L84.24 16.9802H84L83.85 17.5202H82.57L82.3 16.8302L81.72 17.7202L81.46 17.0002H75.06L75 18.1502H74.63L74.52 17.0002H72.79L72.43 17.8102L72.15 17.0002H71.46L70.56 18.2602L70.21 17.4402L69.71 18.2302L69.3 17.6002H68.11L67.96 18.1202H67.19L67 17.5702H65.32C65.3008 17.465 65.274 17.3614 65.24 17.2602C65.24 17.1668 65.21 17.0868 65.15 17.0202H55V18.0702L54.55 18.2802V28.7502L54.11 28.8502V17.0002H53.6V18.3702C53.1596 18.0103 52.8159 17.5463 52.6 17.0202H50.44L50.22 17.5902H50L49.81 17.0002H48.55L48.19 17.8302L47.92 17.0002H46.22C46.22 17.1102 46.16 17.1902 46.13 17.2802C46.1 17.3702 46.08 17.4402 46.01 17.6402L45.49 17.0402H44.36L44.17 17.5702H43.89L43.75 17.0002H41.15L40.55 17.8802V25.8002H40.11V19.0002L39.17 18.0002L39.08 16.8002L37.75 18.4002V17.0002H35.45V19.2202L35.02 19.4102C34.86 18.6202 35.02 17.8402 34.92 17.0402H34.11L33.87 17.6902L33.41 17.0002H32.72L32.34 17.8202L32.07 17.0002H28V18.1102L27.61 18.1702L27.51 17.0402H20.51V32.3002L20.07 32.4102V17.0002H16.41L16.04 17.8102L15.76 17.0002H13.55V24.0002L13.21 24.1402C13.15 24.0502 13.05 23.9902 13.05 23.9302V17.0002H0V16.3902Z" fill="white"/>
</g>
</mask>
<g mask="url(#mask0)">
<rect x="-15" width="366" height="32" fill="url(#paint0_linear)"/>
</g>
<defs>
<linearGradient id="paint0_linear" x1="-19.0667" y1="15.3333" x2="350.907" y2="21.5335" gradientUnits="userSpaceOnUse">
<stop stop-color="#00FFE1" stop-opacity="0.4"/>
<stop offset="0.510417" stop-color="#00FFE1"/>
<stop offset="1" stop-color="#00FFE1" stop-opacity="0.4"/>
</linearGradient>
<clipPath id="clip0">
<rect width="336" height="32" fill="white"/>
</clipPath>
</defs>
</svg>
