<svg width="120" height="24" viewBox="0 0 120 24" fill="none" xmlns="http://www.w3.org/2000/svg">
<mask id="mask0" mask-type="alpha" maskUnits="userSpaceOnUse" x="0" y="0" width="120" height="24">
<g clip-path="url(#clip0)">
<path d="M119 11.0002H118V10.2302C117.99 10.0732 117.943 9.92068 117.863 9.78514C117.783 9.64961 117.673 9.53485 117.54 9.4502V9.1002L117.46 7.8602C117.445 7.63443 117.353 7.42052 117.201 7.25341C117.048 7.0863 116.843 6.97589 116.62 6.9402H116.46C116.264 6.94173 116.073 7.00084 115.91 7.1102C115.852 6.98037 115.767 6.86445 115.66 6.7702C115.478 6.60942 115.243 6.52055 115 6.5202H114.87H114.54H114.39C114.148 6.55193 113.926 6.67114 113.766 6.85535C113.605 7.03956 113.518 7.27604 113.52 7.5202V10.9002H107.3V9.1902C107.3 8.92498 107.195 8.67063 107.007 8.48309C106.82 8.29555 106.565 8.1902 106.3 8.1902L106.24 6.4502C106.24 6.18498 106.135 5.93063 105.947 5.74309C105.76 5.55555 105.505 5.4502 105.24 5.4502C105.091 5.45108 104.944 5.48525 104.81 5.5502L104.63 5.6402L104.34 5.7802C104.17 5.86125 104.026 5.98874 103.925 6.14797C103.824 6.30721 103.771 6.49171 103.77 6.6802V10.8802H101L100.67 10.3602V9.3402C100.669 9.16931 100.625 9.00145 100.541 8.85265C100.457 8.70385 100.336 8.57906 100.19 8.4902V7.1102C100.198 6.88443 100.129 6.6627 99.9944 6.48112C99.86 6.29954 99.6681 6.1688 99.45 6.1102C99.3635 6.1013 99.2764 6.1013 99.19 6.1102H99C98.9152 5.98698 98.8105 5.87882 98.69 5.7902V5.1702V4.5902C98.6781 4.41862 98.6221 4.253 98.5275 4.10936C98.433 3.96572 98.3029 3.8489 98.15 3.7702C98.0085 3.6938 97.8507 3.65264 97.69 3.6502C97.5062 3.65145 97.3262 3.70335 97.17 3.8002L96.97 3.9202L96.71 4.0802C96.5626 4.16994 96.4409 4.2963 96.3568 4.44701C96.2727 4.59771 96.229 4.76761 96.23 4.9402V10.9402H59.61C59.5544 10.7114 59.4198 10.5095 59.23 10.3702C59.0706 10.2437 58.8811 10.161 58.68 10.1302C58.6192 9.87969 58.4701 9.65953 58.26 9.5102V9.0802V8.3602C58.2447 8.10551 58.1326 7.86632 57.9467 7.69157C57.7608 7.51682 57.5151 7.41974 57.26 7.4202H56.82V5.7102C56.82 5.44498 56.7146 5.19063 56.5271 5.00309C56.3396 4.81555 56.0852 4.7102 55.82 4.7102H55.3C55.0348 4.7102 54.7804 4.81555 54.5929 5.00309C54.4053 5.19063 54.3 5.44498 54.3 5.7102V10.3302L54 10.9002H52V10.8102C51.9602 10.5984 51.853 10.4051 51.6944 10.2591C51.5358 10.1132 51.3344 10.0224 51.12 10.0002L51.06 8.2402C51.06 7.97498 50.9546 7.72063 50.7671 7.53309C50.5795 7.34555 50.3252 7.2402 50.06 7.2402V4.0002C50.06 3.73498 49.9546 3.48063 49.7671 3.29309C49.5795 3.10555 49.3252 3.0002 49.06 3.0002H48.06C47.7948 3.0002 47.5404 3.10555 47.3529 3.29309C47.1653 3.48063 47.06 3.73498 47.06 4.0002V11.0002H41.38L41.27 10.5502C41.2187 10.3415 41.1015 10.1548 40.9358 10.0179C40.7701 9.88103 40.5646 9.80118 40.35 9.7902H40.3C40.1228 9.7905 39.9489 9.83789 39.796 9.9275C39.6431 10.0171 39.5168 10.1457 39.43 10.3002V7.0902C39.4377 6.86443 39.3688 6.6427 39.2344 6.46112C39.1 6.27954 38.9081 6.1488 38.69 6.0902H38.48V5.0902C38.4795 4.88629 38.4167 4.6874 38.3 4.5202L38.09 4.2002C37.96 4.0202 37.87 3.8802 37.77 3.7502L37.49 3.3502L37.24 3.0002C37.1469 2.8728 37.025 2.76924 36.8842 2.69798C36.7434 2.62672 36.5878 2.58979 36.43 2.5902C36.328 2.59147 36.2268 2.60833 36.13 2.6402C35.9276 2.70383 35.7507 2.83017 35.6249 3.00094C35.4991 3.17171 35.4308 3.37807 35.43 3.5902V10.9102H6.35998L6.26998 10.7702L6.04998 10.3702V8.2602C6.04998 7.6702 6.04998 7.0802 6.04998 6.3802L5.99998 5.2702C5.99658 5.05295 5.92253 4.84273 5.78901 4.67132C5.65549 4.49992 5.46979 4.37666 5.25998 4.3202C5.1736 4.31037 5.08637 4.31037 4.99998 4.3202H4.83998C4.76739 4.22896 4.6794 4.15112 4.57998 4.0902L4.48998 4.0002V1.2002C4.48998 0.934979 4.38463 0.680625 4.19709 0.493089C4.00955 0.305552 3.7552 0.200195 3.48998 0.200195H2.99998C2.73477 0.200195 2.48041 0.305552 2.29288 0.493089C2.10534 0.680625 1.99998 0.934979 1.99998 1.2002V11.0002L1.38998 11.0602C1.25272 11.0734 1.11968 11.1149 0.999211 11.182C0.878746 11.2491 0.773465 11.3404 0.689983 11.4502C0.606143 11.56 0.545975 11.686 0.513273 11.8203C0.480571 11.9545 0.476046 12.0941 0.499983 12.2302L0.559983 12.5702L0.659983 13.0802C0.700461 13.315 0.823441 13.5276 1.00678 13.6798C1.19011 13.832 1.42175 13.9137 1.65998 13.9102H1.99998V14.3202C1.99998 17.0502 1.99998 19.7302 1.99998 22.4102C2.00468 22.636 2.05932 22.858 2.15998 23.0602V23.1302C2.20459 23.2549 2.27353 23.3695 2.3628 23.4674C2.45206 23.5652 2.55988 23.6444 2.67998 23.7002C2.81181 23.7603 2.95512 23.791 3.09998 23.7902C3.21594 23.7901 3.33099 23.7698 3.43998 23.7302L3.81998 23.5902C4.01325 23.5203 4.1803 23.3926 4.2984 23.2244C4.41649 23.0562 4.4799 22.8557 4.47998 22.6502V19.8802C4.59747 19.8112 4.69686 19.7152 4.76998 19.6002H4.99998C5.09285 19.6133 5.18711 19.6133 5.27998 19.6002C5.49442 19.5378 5.68182 19.4055 5.81231 19.2243C5.9428 19.043 6.00886 18.8233 5.99998 18.6002V13.9002H35.47V20.4002C35.4611 20.6233 35.5272 20.843 35.6577 21.0243C35.7881 21.2055 35.9755 21.3378 36.19 21.4002C36.2827 21.4155 36.3773 21.4155 36.47 21.4002C36.6382 21.3988 36.8034 21.3551 36.9502 21.2729C37.0971 21.1908 37.2208 21.0729 37.31 20.9302L38.31 19.2602C38.4086 19.1011 38.4606 18.9174 38.46 18.7302V17.8202H38.67C38.8881 17.7616 39.08 17.6309 39.2144 17.4493C39.3488 17.2677 39.4177 17.046 39.41 16.8202V13.8902C40.41 13.8402 41.56 13.8102 42.8 13.8102C44.8 13.8102 46.27 13.8802 47.09 13.9602V20.0002C47.09 20.2654 47.1953 20.5198 47.3829 20.7073C47.5704 20.8948 47.8248 21.0002 48.09 21.0002H49.09C49.3552 21.0002 49.6096 20.8948 49.7971 20.7073C49.9846 20.5198 50.09 20.2654 50.09 20.0002V16.5002H50.21C50.4575 16.4753 50.6869 16.3591 50.8533 16.1742C51.0197 15.9893 51.1112 15.749 51.11 15.5002V13.9402H54.11V17.9402C54.1195 18.1754 54.1846 18.405 54.3 18.6102V18.6702C54.3491 18.793 54.4222 18.9049 54.5149 18.9993C54.6076 19.0937 54.7181 19.1688 54.84 19.2202C54.964 19.2706 55.0962 19.2977 55.23 19.3002C55.3607 19.2986 55.4898 19.2714 55.61 19.2202L55.76 19.1602L56.04 19.0402C56.2207 18.9636 56.3749 18.8356 56.4834 18.672C56.5919 18.5084 56.6498 18.3165 56.65 18.1202V16.5402L57.23 16.4902C57.4811 16.47 57.7154 16.3559 57.8859 16.1705C58.0565 15.9851 58.1508 15.7421 58.15 15.4902V14.4202L58.4 13.9202H96.25V19.2002C96.25 19.4654 96.3553 19.7198 96.5429 19.9073C96.7304 20.0948 96.9848 20.2002 97.25 20.2002C97.3297 20.2098 97.4103 20.2098 97.49 20.2002L97.76 20.1302H97.93C98.1387 20.0789 98.3254 19.9617 98.4622 19.796C98.5991 19.6303 98.679 19.4249 98.69 19.2102V18.4502V18.2002C98.8406 18.1009 98.9615 17.9627 99.04 17.8002H99.19C99.2797 17.81 99.3703 17.81 99.46 17.8002C99.6763 17.7397 99.8659 17.6082 99.9984 17.4268C100.131 17.2453 100.198 17.0246 100.19 16.8002V15.3602L100.28 15.3002C100.424 15.2101 100.543 15.0848 100.625 14.9361C100.707 14.7874 100.75 14.6201 100.75 14.4502V13.9202H103.75V17.4002C103.75 17.5529 103.786 17.7035 103.853 17.8405C103.921 17.9774 104.019 18.097 104.14 18.1902C104.315 18.3257 104.529 18.3995 104.75 18.4002C104.833 18.41 104.917 18.41 105 18.4002L105.3 18.3202H105.45C105.662 18.2679 105.851 18.1478 105.988 17.978C106.125 17.8083 106.203 17.5983 106.21 17.3802V15.6602C106.475 15.6602 106.73 15.5548 106.917 15.3673C107.105 15.1798 107.21 14.9254 107.21 14.6602V14.0002H113.31C113.31 14.1902 113.31 14.3802 113.31 14.5802C113.28 15.3084 113.313 16.0378 113.41 16.7602C113.448 16.9968 113.57 17.2118 113.754 17.366C113.937 17.5202 114.17 17.6033 114.41 17.6002C114.594 17.5989 114.774 17.547 114.93 17.4502L115.3 17.2302L115.38 17.1802C115.602 17.0462 115.764 16.831 115.83 16.5802C115.916 16.5906 116.004 16.5906 116.09 16.5802C116.283 16.57 116.472 16.5193 116.644 16.4315C116.816 16.3436 116.968 16.2205 117.09 16.0702C117.269 15.8848 117.369 15.6377 117.37 15.3802V14.5002L117.66 13.8702H119C119.265 13.8702 119.52 13.7648 119.707 13.5773C119.895 13.3898 120 13.1354 120 12.8702V12.0002C120 11.735 119.895 11.4806 119.707 11.2931C119.52 11.1056 119.265 11.0002 119 11.0002Z" fill="white"/>
</g>
</mask>
<g mask="url(#mask0)">
<rect width="120" height="24" fill="url(#paint0_linear)"/>
</g>
<defs>
<linearGradient id="paint0_linear" x1="-1.33334" y1="11.5" x2="119.998" y2="12.3889" gradientUnits="userSpaceOnUse">
<stop stop-color="#00FFE1" stop-opacity="0.4"/>
<stop offset="0.510417" stop-color="#00FFE1"/>
<stop offset="1" stop-color="#00FFE1" stop-opacity="0.4"/>
</linearGradient>
<clipPath id="clip0">
<rect width="120" height="24" fill="white"/>
</clipPath>
</defs>
</svg>
