<svg width="120" height="24" viewBox="0 0 120 24" fill="none" xmlns="http://www.w3.org/2000/svg">
<mask id="mask0" mask-type="alpha" maskUnits="userSpaceOnUse" x="0" y="0" width="120" height="24">
<path d="M119.75 12.3192V11.8692C119.737 11.6128 119.626 11.3711 119.44 11.1942C119.254 11.0174 119.007 10.9189 118.75 10.9192H118L117.83 10.6592L117.68 10.4492C117.588 10.3168 117.466 10.2085 117.323 10.1336C117.18 10.0587 117.021 10.0195 116.86 10.0192H116.75C116.603 10.0401 116.46 10.0875 116.33 10.1592C116.237 10.1488 116.143 10.1488 116.05 10.1592H113.56H113.32C113.225 10.0544 113.11 9.97075 112.98 9.91387C112.851 9.857 112.711 9.82814 112.57 9.82922H112.45C112.242 9.8542 112.047 9.94389 111.893 10.0856C111.739 10.2274 111.633 10.414 111.59 10.6192V10.8592H111.32V10.5392L111.25 9.61922C111.233 9.39667 111.142 9.18618 110.992 9.02127C110.841 8.85637 110.64 8.74652 110.42 8.70922H110.25C110.029 8.70991 109.815 8.78375 109.64 8.91922C109.589 8.82407 109.525 8.73655 109.45 8.65922C109.357 8.56172 109.245 8.484 109.122 8.43073C108.998 8.37746 108.865 8.34973 108.73 8.34922H107.37C107.194 8.34852 107.021 8.39439 106.868 8.4822C106.715 8.57 106.588 8.69661 106.5 8.84922L106.31 9.17922L105.75 10.1792C105.664 10.1688 105.576 10.1688 105.49 10.1792H103.55C103.408 10.1769 103.268 10.2077 103.14 10.2692C103.031 10.2297 102.916 10.2094 102.8 10.2092H102.04C101.917 10.2082 101.794 10.232 101.68 10.2792C101.546 10.2143 101.399 10.1801 101.25 10.1792H99.7201C99.5207 10.1788 99.3257 10.238 99.1601 10.3492C98.9752 10.1861 98.7366 10.0971 98.4901 10.0992H98.0001V9.35922C97.9933 9.19251 97.9449 9.03015 97.8594 8.88693C97.7738 8.7437 97.6537 8.62417 97.5101 8.53922V8.12922V7.46922C97.4948 7.21454 97.3827 6.97534 97.1968 6.80059C97.0109 6.62584 96.7653 6.52876 96.5101 6.52922H95.9701V6.14922C96.0106 4.6918 95.9773 3.23326 95.8701 1.77922C95.847 1.55438 95.7484 1.344 95.5904 1.18238C95.4325 1.02075 95.2244 0.917418 95.0001 0.889219H94.7401C94.5789 0.889484 94.4201 0.928725 94.2774 1.0036C94.1346 1.07847 94.012 1.18675 93.9201 1.31922L93.8001 1.48922L92.9001 2.78922C92.7834 2.95642 92.7206 3.15531 92.7201 3.35922V4.09922C92.5053 4.25279 92.3555 4.48102 92.3001 4.73922C92.2535 4.86085 92.2265 4.98912 92.2201 5.11922V8.26922H92.0401H91.9001H91.7401H91.5201C91.2798 8.30318 91.0601 8.42335 90.9019 8.60734C90.7437 8.79132 90.6577 9.02657 90.6601 9.26922V9.74922C90.5543 9.71078 90.4427 9.6905 90.3301 9.68922V9.68922C90.1108 9.67849 89.894 9.74024 89.7133 9.86494C89.5326 9.98965 89.3979 10.1704 89.3301 10.3792L89.1801 10.8492H87.7801C87.7418 10.6126 87.6197 10.3976 87.4362 10.2434C87.2526 10.0893 87.0198 10.0061 86.7801 10.0092H85.1201V9.99922C85.084 9.76077 84.9628 9.54342 84.7791 9.38722C84.5953 9.23102 84.3613 9.14649 84.1201 9.14922V5.72922C84.1236 5.49099 84.0419 5.25935 83.8897 5.07601C83.7375 4.89268 83.5249 4.7697 83.2901 4.72922L83.0001 4.69922V1.19922C83.0001 0.934002 82.8948 0.679648 82.7072 0.492112C82.5197 0.304576 82.2653 0.199219 82.0001 0.199219H81.5001C81.2349 0.199219 80.9805 0.304576 80.793 0.492112C80.6055 0.679648 80.5001 0.934002 80.5001 1.19922V3.99922C80.3611 4.08351 80.2447 4.20041 80.1611 4.33981C80.0775 4.47921 80.0291 4.6369 80.0201 4.79922V5.79922C79.8623 5.88557 79.7307 6.01289 79.6392 6.16776C79.5477 6.32263 79.4996 6.49933 79.5001 6.67922V8.67922L78.6701 9.88922H78.5101C78.3089 9.90495 78.1172 9.98118 77.9601 10.1079C77.8031 10.2346 77.688 10.4059 77.6301 10.5992L77.5301 10.9492H77.1401C77.0854 10.7273 76.9563 10.5309 76.7743 10.3926C76.5924 10.2544 76.3685 10.1826 76.1401 10.1892H74.6901C74.5029 10.1886 74.3193 10.2406 74.1601 10.3392C74.0737 10.2007 73.9547 10.0855 73.8135 10.0035C73.6723 9.92161 73.5132 9.8755 73.3501 9.86922V9.86922C73.1364 9.86688 72.9283 9.93743 72.7601 10.0692C72.601 9.97059 72.4173 9.91862 72.2301 9.91922H72.1701C71.9878 9.92827 71.8114 9.98706 71.6601 10.0892C71.5511 10.0497 71.4361 10.0294 71.3201 10.0292H71.1601L70.5501 8.75922C70.4677 8.59092 70.3396 8.44918 70.1804 8.35016C70.0213 8.25115 69.8375 8.19884 69.6501 8.19922V8.13922L69.5301 7.87922C69.4563 7.70458 69.3344 7.55452 69.1786 7.44652C69.0228 7.33851 68.8395 7.27702 68.6501 7.26922C68.4665 7.26884 68.2863 7.31902 68.1293 7.41428C67.9723 7.50953 67.8446 7.64617 67.7601 7.80922L67.0001 8.90922L66.8401 9.20922H66.6801C66.4448 9.20494 66.2154 9.28382 66.0325 9.43199C65.8496 9.58015 65.7248 9.7881 65.6801 10.0192V10.1392H65.6001C65.399 10.1378 65.2027 10.2009 65.0401 10.3192C64.8656 10.1838 64.6511 10.1099 64.4301 10.1092H60.8901C60.7302 10.1086 60.5725 10.1463 60.4301 10.2192C60.3527 10.0517 60.2305 9.90882 60.077 9.80645C59.9234 9.70408 59.7445 9.64621 59.5601 9.63922V9.63922C59.3638 9.63938 59.1719 9.69731 59.0083 9.80578C58.8447 9.91425 58.7167 10.0685 58.6401 10.2492L58.3501 9.63922C58.2705 9.46718 58.1436 9.32131 57.9843 9.21862C57.8249 9.11593 57.6397 9.06065 57.4501 9.05922C57.3869 8.82079 57.2447 8.61086 57.0467 8.46373C56.8487 8.3166 56.6067 8.24098 56.3601 8.24922C56.1336 8.26449 55.9137 8.33203 55.7176 8.44654C55.5216 8.56105 55.3547 8.71941 55.2301 8.90922C55.089 9.08516 55.0114 9.30365 55.0101 9.52922V10.1492H54.0101C53.783 10.142 53.5603 10.2124 53.3785 10.3487C53.1967 10.485 53.0668 10.6792 53.0101 10.8992H51.5901V10.8392C51.5621 10.7051 51.5067 10.5783 51.4276 10.4665C51.3485 10.3546 51.2472 10.2603 51.1301 10.1892C50.9753 10.0764 50.7913 10.0105 50.6001 9.99922C50.5138 9.98885 50.4265 9.98885 50.3401 9.99922H50.1801L49.9701 10.0492C49.7997 10.0945 49.6442 10.184 49.5195 10.3086C49.3949 10.4333 49.3054 10.5888 49.2601 10.7592H48.4001C48.3378 10.5448 48.2054 10.3574 48.0242 10.2269C47.843 10.0964 47.6233 10.0303 47.4001 10.0392H46.8301C46.8301 9.774 46.7248 9.51965 46.5372 9.33211C46.3497 9.14458 46.0953 9.03922 45.8301 9.03922H45.0001C44.8873 9.03788 44.7753 9.05825 44.6701 9.09922L44.6201 8.99922L44.3001 8.42922C44.2125 8.27327 44.0846 8.14369 43.9298 8.05398C43.775 7.96428 43.599 7.91774 43.4201 7.91922H43.3101C43.1142 7.94066 42.9291 8.01948 42.7779 8.1458C42.6266 8.27212 42.5161 8.4403 42.4601 8.62922L42.3601 9.00922C42.1772 9.01161 41.9984 9.06416 41.8432 9.16114C41.688 9.25811 41.5624 9.39581 41.4801 9.55922L41.0401 10.4192V9.96922C41.0404 9.82231 41.0082 9.67715 40.946 9.54407C40.8838 9.41098 40.793 9.29324 40.6801 9.19922C40.4675 9.10008 40.2268 9.07884 40.0001 9.13922H39.8201L39.3701 9.22922C39.199 9.25698 39.0381 9.32872 38.9031 9.43741C38.7682 9.5461 38.6637 9.68801 38.6001 9.84922V9.84922H38.4301C38.2325 9.88303 38.0495 9.97549 37.9051 10.1146C37.7607 10.2537 37.6614 10.433 37.6201 10.6292V10.8592H37.2801V10.8092C37.2334 10.5799 37.1077 10.3743 36.925 10.2281C36.7423 10.082 36.5141 10.0045 36.2801 10.0092H36.1901L35.2701 10.0992C35.1209 10.1102 34.9761 10.1546 34.8462 10.229C34.7164 10.3034 34.605 10.406 34.5201 10.5292C34.4384 10.3624 34.3119 10.2217 34.1547 10.1228C33.9975 10.0239 33.8158 9.97071 33.6301 9.96922H32.9001L32.0001 8.58922C31.9104 8.4418 31.784 8.32012 31.6333 8.236C31.4826 8.15189 31.3127 8.10821 31.1401 8.10922H31.0101C30.8441 8.12981 30.686 8.1917 30.5501 8.28922C30.4638 8.27885 30.3765 8.27885 30.2901 8.28922V8.28922C30.2294 8.03537 30.0848 7.80943 29.8797 7.64793C29.6747 7.48643 29.4211 7.3988 29.1601 7.39922C28.7856 7.41604 28.43 7.56893 28.1601 7.82922C28.0565 7.92271 27.9736 8.03685 27.9168 8.1643C27.86 8.29174 27.8304 8.42967 27.8301 8.56922V9.46922L27.0301 10.8992H26.0301C25.9754 10.6773 25.8463 10.4809 25.6643 10.3426C25.4824 10.2044 25.2586 10.1326 25.0301 10.1392H21.5301C21.3092 10.1399 21.0947 10.2138 20.9201 10.3492C20.766 10.2239 20.578 10.1473 20.3801 10.1292H20.2301V9.93922C20.1813 9.71179 20.0548 9.50848 19.8723 9.36429C19.6897 9.2201 19.4627 9.14404 19.2301 9.14922H19.1601C19.0697 8.84003 18.8709 8.57378 18.6001 8.39922C18.6001 8.22922 18.5001 8.05922 18.4501 7.90922C18.3863 7.72484 18.2699 7.56317 18.1153 7.44412C17.9607 7.32507 17.7747 7.25384 17.5801 7.23922H17.5001C17.3192 7.2397 17.1418 7.28925 16.9869 7.38258C16.8319 7.47592 16.7051 7.60954 16.6201 7.76922L16.2701 8.42922L16.1601 8.63922C16.0619 8.52099 15.9377 8.42701 15.7972 8.36457C15.6567 8.30213 15.5037 8.27293 15.3501 8.27922C15.1589 8.28384 14.9709 8.32902 14.7985 8.41177C14.6261 8.49452 14.4733 8.61295 14.3501 8.75922C14.1784 8.93705 14.0787 9.17217 14.0701 9.41922V10.1892V10.3892C13.8888 10.2437 13.6625 10.1659 13.4301 10.1692H12.4301C12.2602 10.1689 12.0929 10.2119 11.9442 10.2941C11.7955 10.3763 11.6702 10.4951 11.5801 10.6392C11.4951 10.4795 11.3683 10.3459 11.2134 10.2526C11.0584 10.1592 10.881 10.1097 10.7001 10.1092H8.77012C8.5399 10.1111 8.31738 10.1923 8.14012 10.3392C7.96429 10.2073 7.74991 10.137 7.53012 10.1392H6.62012H6.44012C6.30737 10.0567 6.15614 10.0086 6.00012 9.99922V9.33922C6.00012 9.074 5.89476 8.81965 5.70722 8.63211C5.51969 8.44458 5.26533 8.33922 5.00012 8.33922H3.32012C3.1146 8.33931 2.91411 8.40271 2.74591 8.52081C2.57772 8.6389 2.44999 8.80595 2.38012 8.99922V8.99922C2.19019 9.0287 2.01278 9.11229 1.86913 9.23998C1.72547 9.36767 1.62166 9.53406 1.57012 9.71922L1.46012 10.0992H1.23012C1.09613 10.0984 0.963347 10.1246 0.839662 10.1761C0.715977 10.2277 0.60391 10.3035 0.510118 10.3992C0.416808 10.4959 0.343925 10.6103 0.295817 10.7357C0.24771 10.8611 0.225366 10.995 0.230118 11.1292V12.5392V12.9492C0.230118 13.2144 0.335475 13.4688 0.523011 13.6563C0.710548 13.8439 0.964902 13.9492 1.23012 13.9492H1.40012V14.1492C1.43275 14.35 1.52586 14.5361 1.66701 14.6826C1.80817 14.8292 1.99066 14.9291 2.19012 14.9692H2.39012C2.46358 15.1537 2.59032 15.3121 2.75416 15.4243C2.91801 15.5365 3.11155 15.5974 3.31012 15.5992H5.00012C5.26533 15.5992 5.51969 15.4939 5.70722 15.3063C5.89476 15.1188 6.00012 14.8644 6.00012 14.5992V13.8992H14.1101V14.7292C14.1101 14.9944 14.2155 15.2488 14.403 15.4363C14.5905 15.6239 14.8449 15.7292 15.1101 15.7292C15.2088 15.728 15.3067 15.7112 15.4001 15.6792L15.6001 15.6192L15.8201 15.5592C15.9493 15.5222 16.0687 15.4573 16.1701 15.3692L16.5801 16.1492C16.6651 16.3089 16.7919 16.4425 16.9469 16.5359C17.1018 16.6292 17.2792 16.6787 17.4601 16.6792C17.641 16.6787 17.8184 16.6292 17.9734 16.5359C18.1283 16.4425 18.2551 16.3089 18.3401 16.1492L18.7101 15.4292L19.0701 14.7592H19.3201C19.5308 14.7415 19.7305 14.6574 19.8904 14.519C20.0503 14.3807 20.1622 14.1952 20.2101 13.9892H27.5601L27.8801 14.4792V14.8692L28.0001 16.0992C28.0144 16.3221 28.1029 16.5338 28.2516 16.7005C28.4002 16.8673 28.6003 16.9795 28.8201 17.0192H29.0001C29.1953 17.0199 29.3864 16.9635 29.5499 16.8568C29.7133 16.7502 29.8421 16.5981 29.9201 16.4192L30.2401 15.6692H30.3401C30.4164 15.6796 30.4938 15.6796 30.5701 15.6692C30.7418 15.8306 30.9649 15.9262 31.2001 15.9392H31.2601C31.4475 15.9396 31.6313 15.8873 31.7904 15.7883C31.9496 15.6893 32.0777 15.5475 32.1601 15.3792L32.8301 13.9992H38.8301V14.0792L39.0801 14.4992C39.1702 14.6433 39.2955 14.7621 39.4442 14.8443C39.5929 14.9266 39.7602 14.9696 39.9301 14.9692H40.1001C40.2978 14.9354 40.4807 14.843 40.6251 14.7039C40.7696 14.5648 40.8689 14.3855 40.9101 14.1892L41.0001 13.8992H41.3301C41.378 14.1052 41.4899 14.2907 41.6499 14.429C41.8098 14.5674 42.0094 14.6515 42.2201 14.6692H42.4001L42.5001 15.0892C42.5493 15.2856 42.6568 15.4624 42.8086 15.5963C42.9604 15.7302 43.1492 15.8149 43.3501 15.8392H43.4701C43.651 15.8387 43.8284 15.7892 43.9834 15.6959C44.1383 15.6025 44.2651 15.4689 44.3501 15.3092L44.6001 14.8392L44.7501 14.5492C44.8164 14.5597 44.8839 14.5597 44.9501 14.5492H45.9501C46.1786 14.5559 46.4024 14.4841 46.5843 14.3458C46.7663 14.2075 46.8954 14.0111 46.9501 13.7892H55.0001V14.9892C54.9929 15.2163 55.0633 15.4391 55.1996 15.6208C55.3359 15.8026 55.5301 15.9325 55.7501 15.9892C55.8328 16.0044 55.9175 16.0044 56.0001 15.9892C56.1783 15.9879 56.3529 15.939 56.5059 15.8476C56.6588 15.7562 56.7846 15.6255 56.8701 15.4692L57.2001 14.8892L57.3601 14.5992H57.5101C57.7399 14.6054 57.9648 14.5322 58.1469 14.3919C58.3291 14.2517 58.4573 14.0529 58.5101 13.8292H65.7401C65.7763 14.0677 65.8974 14.285 66.0812 14.4412C66.2649 14.5974 66.4989 14.6819 66.7401 14.6792H66.9301L67.7201 16.1292C67.8065 16.287 67.9338 16.4186 68.0887 16.5101C68.2435 16.6017 68.4202 16.6497 68.6001 16.6492H68.7101C68.9085 16.6263 69.0955 16.5445 69.247 16.4144C69.3984 16.2843 69.5075 16.1119 69.5601 15.9192L69.6701 15.5192H69.7701C69.942 15.5037 70.1069 15.444 70.2488 15.3458C70.3908 15.2477 70.5049 15.1145 70.5801 14.9592L70.8201 14.4792L71.1701 13.7592H78.6101L79.5301 15.3092V17.1692C79.5294 17.3454 79.5753 17.5187 79.6631 17.6715C79.7509 17.8243 79.8775 17.9511 80.0301 18.0392V18.9992C80.0301 19.1728 80.0753 19.3433 80.1612 19.4941C80.2472 19.6449 80.3708 19.7707 80.5201 19.8592L80.6101 19.9092V22.7992C80.6101 23.0644 80.7155 23.3188 80.903 23.5063C81.0905 23.6939 81.3449 23.7992 81.6101 23.7992C81.6965 23.809 81.7837 23.809 81.8701 23.7992L82.1601 23.7192H82.3101C82.5136 23.6648 82.6947 23.5475 82.8275 23.3841C82.9604 23.2207 83.0383 23.0195 83.0501 22.8092C83.0501 22.0992 83.0501 21.3992 83.0501 20.7292C83.0501 20.2192 83.0501 19.7292 83.0501 19.2492H83.1201C83.3853 19.2492 83.6397 19.1439 83.8272 18.9563C84.0148 18.7688 84.1201 18.5144 84.1201 18.2492V14.7292C84.3486 14.7359 84.5724 14.6641 84.7543 14.5258C84.9363 14.3875 85.0654 14.1911 85.1201 13.9692H90.7001V14.5292C90.6994 14.6608 90.7246 14.7913 90.7743 14.9131C90.8241 15.035 90.8974 15.1458 90.9901 15.2392C91.1172 15.3786 91.2715 15.4904 91.4435 15.5678C91.6155 15.6452 91.8015 15.6865 91.9901 15.6892C92.0862 15.7045 92.1841 15.7045 92.2801 15.6892V18.9992C92.2804 19.1665 92.3226 19.3311 92.403 19.4779C92.4834 19.6246 92.5993 19.7489 92.7401 19.8392H92.8101V20.6592C92.8184 20.8494 92.8809 21.0333 92.9901 21.1892V21.2592L93.9901 22.7092C94.082 22.8417 94.2046 22.95 94.3474 23.0248C94.4901 23.0997 94.6489 23.139 94.8101 23.1392C94.9095 23.1543 95.0107 23.1543 95.1101 23.1392C95.3208 23.0732 95.5038 22.9393 95.6304 22.7584C95.757 22.5775 95.8202 22.3598 95.8101 22.1392V17.4392H95.8901H96.0701L96.3301 17.3892H96.5501C96.7715 17.349 96.9728 17.2354 97.1216 17.0666C97.2704 16.8979 97.358 16.6839 97.3701 16.4592V15.4592C97.5046 15.3757 97.6173 15.2614 97.6991 15.1258C97.7808 14.9902 97.8291 14.8372 97.8401 14.6792V13.9092H105.61L105.71 14.0992L106.22 15.0992C106.303 15.2641 106.43 15.4028 106.587 15.4999C106.745 15.597 106.925 15.6487 107.11 15.6492H108.33C108.507 15.6489 108.681 15.6015 108.834 15.5119C108.987 15.4223 109.113 15.2937 109.2 15.1392L109.31 14.9292C109.476 15.0405 109.671 15.0997 109.87 15.0992V15.0992C110.077 15.0984 110.278 15.0335 110.447 14.9135C110.615 14.7936 110.742 14.6244 110.81 14.4292L111.03 13.7992H118.65C118.785 13.7987 118.918 13.771 119.042 13.7177C119.165 13.6644 119.277 13.5867 119.37 13.4892C119.463 13.3906 119.535 13.2741 119.581 13.1469C119.627 13.0197 119.648 12.8844 119.64 12.7492L119.75 12.3192Z" fill="white"/>
</mask>
<g mask="url(#mask0)">
<rect width="120" height="24" fill="url(#paint0_linear)"/>
</g>
<defs>
<linearGradient id="paint0_linear" x1="-1.33333" y1="11.5" x2="119.997" y2="12.3889" gradientUnits="userSpaceOnUse">
<stop stop-color="#00FFE1" stop-opacity="0.4"/>
<stop offset="0.510417" stop-color="#00FFE1"/>
<stop offset="1" stop-color="#00FFE1" stop-opacity="0.4"/>
</linearGradient>
</defs>
</svg>
